<?xml version="1.0" encoding="UTF-8"?>
<svg xmlns="http://www.w3.org/2000/svg" xmlns:xlink="http://www.w3.org/1999/xlink" width="0" height="0">
<symbol id="icon-amex" viewBox="0 0 33 26" fill="none">
<g clip-path="url(#clip0_5547_7790)">
<path d="M18.5002 8.09593C18.5002 7.18545 17.7177 7.07451 16.9791 7.07451L14.8083 7.05852V10.9064H15.7188V9.51314H16.7182C17.7397 9.51314 17.5238 10.0848 17.5398 10.9064H18.4613V10.1568C18.4613 9.64606 18.3783 9.31825 17.8506 9.13535C18.2614 8.96844 18.5062 8.54068 18.5002 8.09593ZM16.8682 8.72358H15.7188V7.87406H16.8851C17.168 7.87406 17.4788 7.93003 17.4788 8.28483C17.4788 8.65162 17.185 8.72358 16.8682 8.72358ZM15.9407 13.6928H13.0143L11.848 14.9581L10.7096 13.6928H7.0177L7.0117 17.5406H10.6437L11.826 16.2633L12.9584 17.5406H14.7464L14.7523 16.2473C15.8018 16.2473 17.4898 16.5022 17.4898 14.9541C17.4898 13.9936 16.8072 13.6928 15.9407 13.6928ZM10.1769 16.7301H7.92319V15.9635H9.93806V15.1809H7.92319V14.4873H10.2389L11.2323 15.6087L10.1769 16.7301ZM13.8309 17.1848L12.4257 15.6247L13.8309 14.1036V17.1848ZM15.9297 15.4638H14.7523V14.4863H15.9457C16.2565 14.4863 16.5124 14.6143 16.5124 14.9531C16.5124 15.3079 16.2565 15.4638 15.9297 15.4638ZM14.1747 7.87406V7.06351H11.0934V10.9113H14.1747V10.1178H12.0149V9.35123H14.1137V8.56867H12.0149V7.87506L14.1747 7.87406ZM21.6265 14.7312C21.6265 13.8207 20.8439 13.6928 20.1223 13.6928H17.9346L17.9296 17.5406H18.851L18.857 16.1364H19.8345C20.4451 16.1364 20.656 16.2473 20.656 16.902L20.651 17.5406H21.5725L21.5785 16.7751C21.5785 16.2803 21.4786 15.9365 20.9679 15.7536C21.3956 15.5817 21.6235 15.154 21.6285 14.7322L21.6265 14.7312ZM20.0054 15.3529H18.856V14.4863H20.0224C20.3052 14.4863 20.616 14.5423 20.616 14.8971C20.616 15.2799 20.3162 15.3529 20.0054 15.3529ZM10.4108 10.9113V7.06351H8.87865L7.78527 9.67305L6.57995 7.06351H5.07579V10.7115L3.51567 7.06351H2.15543L0.506362 10.9113H1.4998L1.8556 10.0618H3.77153L4.12633 10.9113H6.00327V7.90204L7.33552 10.9113H8.14606L9.47831 7.90204V10.9113H10.4108ZM2.18142 9.26228L2.80307 7.73014L3.44171 9.26228H2.18142ZM28.6895 18.0843V17.8345C28.0898 18.1453 28.4726 18.0843 19.9884 18.0843C19.9884 16.6851 19.9944 16.7571 19.9884 16.6851C19.8945 16.6791 19.8105 16.6791 19.4667 16.6791C19.4667 17.6735 19.4607 17.0569 19.4607 18.0843H17.2619C17.2619 17.4127 17.2669 17.2348 17.2669 16.4632C16.7112 16.796 16.0016 16.818 15.363 16.807C15.363 17.6236 15.357 17.2678 15.357 18.0843H12.6415C12.3587 17.7675 12.4916 17.9124 11.786 17.1179C11.6081 17.3118 11.0754 17.8894 10.8925 18.0843H6.33908V12.9592H10.9535C11.2313 13.27 11.1094 13.1311 11.814 13.9147C11.9919 13.7208 12.4916 13.1701 12.6855 12.9592H15.9057C16.4504 12.9592 16.9051 13.0651 17.2549 13.27V12.9592C20.2702 12.9592 20.8249 12.8812 21.4586 13.242V12.9592H25.8011V13.248C26.4338 12.8652 26.8895 12.9592 29.4041 12.9592V13.237C29.9758 12.9092 30.3256 12.9482 32.4194 12.9592V3.22068C32.4191 2.51382 32.1382 1.836 31.6384 1.33618C31.1386 0.836355 30.4608 0.555441 29.7539 0.555176H3.1019C2.39505 0.555441 1.71722 0.836355 1.2174 1.33618C0.71758 1.836 0.436666 2.51382 0.436401 3.22068V9.31725L1.71868 6.32393H3.92344C4.16231 6.88461 4.01239 6.52981 4.42316 7.49527V6.32393H6.97772C7.13863 6.66874 7.59437 7.65618 7.74929 7.98999C8.07111 7.23542 8.30997 6.66274 8.44889 6.32393H14.1677C14.1677 6.31893 14.8063 6.32393 14.8113 6.32393C17.2379 6.33492 17.7876 6.27996 18.3873 6.61776V6.32393H20.6031V6.84064C21.0248 6.50183 21.5965 6.32393 22.3081 6.32393H23.8402C23.8402 6.35191 23.9452 6.34092 23.9682 6.34092H25.7672C26 6.88461 25.9121 6.67373 26.2559 7.48528V6.34092H28.6605C28.9324 6.78467 28.6046 6.24098 29.2822 7.36235V6.34092H31.4979V11.449H29.1882C28.8884 10.9493 29.1103 11.3271 28.4546 10.2327V11.449H25.5233C25.1675 10.6275 25.5173 11.4321 25.1565 10.5995H24.1011C23.8682 11.1552 23.9792 10.8884 23.7463 11.449H22.2581C21.5755 11.449 21.0198 11.2821 20.6091 10.9553V11.449H16.9171C16.9001 10.6775 16.9111 10.0718 16.9111 10.0718C16.8112 10.0558 16.7222 10.0608 16.3674 10.0608V11.455H8.84367V10.8224C8.70475 11.1332 8.69376 11.1502 8.56083 11.455H6.92275C6.70088 10.9603 6.76184 11.0992 6.63991 10.8224V11.455H3.70256C3.4687 10.8944 3.58063 11.1612 3.34676 10.6055H2.28036C2.0475 11.1612 2.15843 10.8944 1.92556 11.455H0.448395V22.7657C0.44866 23.4725 0.729573 24.1504 1.22939 24.6502C1.72922 25.15 2.40704 25.4309 3.11389 25.4312H29.7709C30.4778 25.4309 31.1556 25.15 31.6554 24.6502C32.1552 24.1504 32.4361 23.4725 32.4364 22.7657V17.7465C31.7308 18.2072 30.6204 18.0853 28.6885 18.0853L28.6895 18.0843ZM30.7044 14.5033H32.3754V13.6928H30.5485C29.8379 13.6928 29.2272 14.0586 29.2272 14.8421C29.2272 16.6741 31.5979 15.5527 31.5979 16.3633C31.5979 16.6461 31.359 16.7191 31.1311 16.7191H29.3541L29.3481 17.5406H31.1251C31.5919 17.5406 32.1026 17.4407 32.3744 17.0469V15.6147C31.7918 14.8481 30.1927 15.5427 30.1927 14.8651C30.1927 14.5433 30.4485 14.5043 30.7034 14.5043L30.7044 14.5033ZM27.5392 16.7131H25.7512L25.7462 17.5346H27.5342C28.3557 17.5346 28.9893 17.2238 28.9893 16.3133C28.9893 14.4703 26.6077 15.6917 26.6077 14.8531C26.6077 14.5423 26.8795 14.4983 27.1184 14.4983H28.8064V13.6878H26.9635C26.2529 13.6878 25.6582 14.0546 25.6582 14.8371C25.6582 16.6691 28.0289 15.5308 28.0289 16.3583C28.0239 16.6581 27.768 16.7131 27.5402 16.7131H27.5392ZM25.1965 14.4863V13.6928H22.1312L22.1252 17.5406H25.1905L25.1955 16.7471L23.0527 16.7301V15.9635H25.1565V15.1809H23.0577V14.4873L25.1965 14.4863ZM22.0702 8.48471C22.0542 8.49571 21.9923 8.60665 21.9923 8.90648C21.9923 9.23929 22.0422 9.33424 22.0532 9.34523C22.0642 9.35023 22.1142 9.37321 22.2421 9.37321L22.6479 8.43474C22.5869 8.43474 22.531 8.42975 22.476 8.42975C22.1652 8.42975 22.0872 8.46772 22.0702 8.48471ZM22.3041 7.05752C20.9988 7.05752 20.4162 7.72414 20.4162 9.01742C20.4162 10.2507 20.9828 10.9054 22.2481 10.9054H23.3145L23.6693 10.0558H25.5743L25.9411 10.9054H27.812V8.02397L29.544 10.9054H30.8543V7.07451H29.9158V9.74501L28.3007 7.07451H26.8955V10.7055L25.3464 7.07451H23.9692L22.6639 10.1008H22.2531C21.5145 10.1008 21.3596 9.65106 21.3596 8.99643C21.3596 7.67517 22.2311 7.88505 23.1976 7.90204V7.05952L22.3041 7.05752ZM24.6418 7.72914L25.2634 9.26128H23.9981L24.6418 7.72914ZM19.0279 7.06351V10.9113H19.9664V7.06351H19.0279Z" fill="currentColor"/>
</g>
<defs>
<clipPath>
<rect fill="currentColor" transform="translate(0.436401 0.555176)"/>
</clipPath>
</defs>
</symbol>

<symbol id="icon-arrow-head" viewBox="0 0 11 11" fill="none">
<path d="M1 1C2.56522 4.47727 5.56522 5.5 10 5.5" vector-effect="non-scaling-stroke" stroke="currentColor" stroke-linecap="round"/>
<path d="M1 10C2.56522 6.52273 5.56522 5.5 10 5.5" vector-effect="non-scaling-stroke" stroke="currentColor" stroke-linecap="round"/>
</symbol>

<symbol id="icon-arrow-long" viewBox="0 0 25 25" fill="none">
<rect fill="currentColor"/>
<path fill-rule="evenodd" clip-rule="evenodd" d="M15.2741 8.05404C15.5205 7.92929 15.8213 8.02787 15.9461 8.27422C16.6723 9.70845 17.7203 10.6266 19.1132 11.1964C20.5227 11.773 22.302 11.9993 24.489 12.0001L24.5 12.0001C24.7761 12.0001 25 12.224 25 12.5001C25 12.5174 24.9991 12.5344 24.9974 12.5512C24.9718 12.8034 24.7589 13.0001 24.5 13.0001C22.308 13.0001 20.525 13.2262 19.1132 13.8038C17.7203 14.3736 16.6723 15.2918 15.9461 16.726C15.8213 16.9724 15.5205 17.0709 15.2741 16.9462C15.0278 16.8214 14.9292 16.5206 15.0539 16.2742C15.843 14.7161 16.982 13.6664 18.4518 13.0001L0.5 13.0001C0.223858 13.0001 0 12.7763 0 12.5001C0 12.224 0.223858 12.0001 0.5 12.0001L18.4518 12.0001C16.982 11.3338 15.843 10.2841 15.0539 8.72599C14.9292 8.47964 15.0278 8.17879 15.2741 8.05404Z" fill="currentColor"/>
</symbol>

<symbol id="icon-arrow-short" viewBox="0 0 25 25" fill="none">
<rect fill="currentColor"/>
<path fill-rule="evenodd" clip-rule="evenodd" d="M14.3401 8.0264C14.6017 7.93808 14.8854 8.07857 14.9737 8.34021C15.4679 9.80412 16.1673 10.695 17.0441 11.2331C17.9308 11.7771 19.0613 11.9993 20.4919 12.0001L20.5 12.0001C20.7589 12.0001 20.9718 12.1969 20.9974 12.449C20.9991 12.4654 21 12.4821 21 12.4989C21 12.4993 21 12.4997 21 12.5001C21 12.5174 20.9991 12.5344 20.9974 12.5513C20.9718 12.8034 20.7589 13.0001 20.5 13.0001C19.0656 13.0001 17.9324 13.2221 17.0441 13.7672C16.1673 14.3052 15.4679 15.1962 14.9737 16.6601C14.8854 16.9217 14.6017 17.0622 14.3401 16.9739C14.0784 16.8855 13.9379 16.6018 14.0263 16.3402C14.5534 14.7787 15.3321 13.6942 16.387 13.0001L4.5 13.0001C4.22386 13.0001 4 12.7763 4 12.5001C4 12.224 4.22386 12.0001 4.5 12.0001L16.387 12.0001C15.3321 11.306 14.5534 10.2216 14.0263 8.66007C13.9379 8.39843 14.0784 8.11473 14.3401 8.0264Z" fill="currentColor"/>
</symbol>

<symbol id="icon-arrow-tiny" viewBox="0 0 13 10" fill="none">
<path d="M0.5 5L12.5 5" stroke="currentColor" stroke-linecap="round"/>
<path d="M6.5 1C7.54348 4.09091 9.54348 5 12.5 5" stroke="currentColor" stroke-linecap="round"/>
<path d="M6.5 9C7.54348 5.90909 9.54348 5 12.5 5" stroke="currentColor" stroke-linecap="round"/>
</symbol>

<symbol id="icon-check-large" viewBox="0 0 12 12" fill="none">
<path d="M1 5.98L4.19 10.78L10.69 1" stroke="black" stroke-linecap="round" stroke-linejoin="round"/>
</symbol>

<symbol id="icon-check-small" viewBox="0 0 8 8" fill="none">
<path d="M1 4.05521L2.97523 7L7 1" stroke="black" stroke-linecap="round" stroke-linejoin="round"/>
</symbol>

<symbol  id="icon-check-xsmall" width="7" height="8" viewBox="0 0 7 8" fill="none">
<path d="M0.5 4.05521L2.47523 7L6.5 1" stroke="currentColor" stroke-linecap="round" stroke-linejoin="round"/>
</symbol>

<symbol id="icon-chevron" viewBox="0 0 12 12" fill="none">
<rect fill="currentColor"/>
<path d="M4 11L9 6L4 1" stroke="currentColor" vector-effect="non-scaling-stroke" stroke-linecap="round"/>
</symbol>

<symbol id="icon-close" viewBox="0 0 14 14" fill="none">
<path d="M7 7L1 1M7 7L13 1M7 7L1 13M7 7L13 13" stroke="currentColor" stroke-linecap="round" vector-effect="non-scaling-stroke" stroke-linejoin="round"/>
</symbol>

<symbol id="icon-delayed" viewBox="0 0 8 12" fill="none">
<path d="M7 1L7 11" stroke="currentColor" vector-effect="non-scaling-stroke" stroke-linecap="round"/>
<path d="M1 1L1 11" stroke="currentColor" vector-effect="non-scaling-stroke" stroke-linecap="round"/>
</symbol>

<symbol id="icon-diners" viewBox="0 0 33 26" fill="none">
<g clip-path="url(#clip0_5547_7788)">
<path d="M13.754 3.21609C8.37115 3.21609 3.98729 7.58296 3.98729 12.9828C3.98729 18.3666 8.37015 22.7495 13.754 22.7495C19.1538 22.7495 23.5207 18.3666 23.5207 12.9828C23.5216 11.6999 23.2696 10.4295 22.7791 9.24415C22.2886 8.05878 21.5692 6.98174 20.6621 6.07464C19.755 5.16753 18.678 4.44816 17.4926 3.95766C16.3073 3.46717 15.0368 3.21517 13.754 3.21609ZM11.5371 18.7486C9.22013 17.8656 7.57018 15.6157 7.57018 12.9818C7.57018 10.3479 9.22013 8.09894 11.5371 7.19897V18.7486ZM15.9699 18.7656V7.19897C18.2868 8.09894 19.9368 10.3489 19.9368 12.9818C19.9368 15.6147 18.2868 17.8656 15.9699 18.7656ZM29.7695 0.555176H3.10332C2.39609 0.555441 1.7179 0.836504 1.21782 1.33659C0.717729 1.83668 0.436666 2.51486 0.436401 3.22209V22.7775C0.436666 23.4847 0.717729 24.1629 1.21782 24.663C1.7179 25.1631 2.39609 25.4441 3.10332 25.4444H29.7695C30.4767 25.4441 31.1549 25.1631 31.655 24.663C32.1551 24.1629 32.4361 23.4847 32.4364 22.7775V3.22209C32.4361 2.51486 32.1551 1.83668 31.655 1.33659C31.1549 0.836504 30.4767 0.555441 29.7695 0.555176ZM18.7538 23.6655H13.737C7.83717 23.6655 2.97132 18.9156 2.97132 13.0988C2.97132 6.73198 7.83817 2.33212 13.737 2.33212H18.7538C24.5866 2.33212 29.9035 6.73198 29.9035 13.0988C29.9035 18.9156 24.5866 23.6655 18.7538 23.6655Z" fill="currentColor"/>
</g>
<defs>
<clipPath>
<rect fill="currentColor" transform="translate(0.436401 0.555176)"/>
</clipPath>
</defs>
</symbol>

<symbol id="icon-discover" viewBox="0 0 33 26" fill="none">
<g clip-path="url(#clip0_5547_7789)">
<path d="M29.3484 9.67118C29.3484 9.23218 29.0424 8.99918 28.4814 8.99918H28.2094V10.3822H28.4704C29.0424 10.3822 29.3484 10.1382 29.3484 9.67118ZM29.7704 0.555176H3.1034C2.39615 0.555441 1.71794 0.836513 1.21784 1.33661C0.717738 1.83672 0.436666 2.51492 0.436401 3.22218V22.7782C0.436666 23.4854 0.717738 24.1636 1.21784 24.6637C1.71794 25.1638 2.39615 25.4449 3.1034 25.4452H29.7704C30.4777 25.4449 31.1559 25.1638 31.656 24.6637C32.1561 24.1636 32.4371 23.4854 32.4374 22.7782V3.22218C32.4371 2.51492 32.1561 1.83672 31.656 1.33661C31.1559 0.836513 30.4777 0.555441 29.7704 0.555176ZM27.3204 8.27118C28.5764 8.27118 30.2594 8.04318 30.2594 9.62718C30.2594 10.3272 29.8924 10.7772 29.2204 10.9162L30.6534 12.8272H29.5644L28.3314 11.0052H28.2094V12.8272H27.3204V8.27118ZM24.2154 8.27718H26.7324V9.05518H25.1044V10.0662H26.6764V10.8332H25.1044V12.0662H26.7324V12.8332H24.2154V8.27718ZM20.3984 8.27718L21.6154 11.3442L22.8484 8.27718H23.8204L21.8484 12.9552H21.3704L19.4264 8.27718H20.3984ZM17.2924 8.11018C17.6179 8.11004 17.9401 8.17405 18.2408 8.29854C18.5416 8.42302 18.8148 8.60554 19.0449 8.83567C19.275 9.0658 19.4576 9.33903 19.582 9.63973C19.7065 9.94044 19.7705 10.2627 19.7704 10.5882C19.7705 10.9136 19.7065 11.2359 19.582 11.5366C19.4576 11.8373 19.275 12.1105 19.0449 12.3407C18.8148 12.5708 18.5416 12.7533 18.2408 12.8778C17.9401 13.0023 17.6179 13.0663 17.2924 13.0662C16.9669 13.0663 16.6447 13.0023 16.344 12.8778C16.0433 12.7533 15.77 12.5708 15.5399 12.3407C15.3098 12.1105 15.1272 11.8373 15.0028 11.5366C14.8783 11.2359 14.8143 10.9136 14.8144 10.5882C14.8143 10.2627 14.8783 9.94044 15.0028 9.63973C15.1272 9.33903 15.3098 9.0658 15.5399 8.83567C15.77 8.60554 16.0433 8.42302 16.344 8.29854C16.6447 8.17405 16.9669 8.11004 17.2924 8.11018ZM14.5544 8.44918V9.50518C13.4374 8.38818 11.9544 9.24418 11.9544 10.5612C11.9544 11.9502 13.4824 12.7002 14.5544 11.6282V12.6842C12.9044 13.4792 11.0374 12.3672 11.0374 10.5622C11.0374 8.82918 12.8764 7.61818 14.5544 8.45118V8.44918ZM9.1544 12.1322C9.7874 12.1322 10.3994 11.2822 8.9714 10.7772C8.1384 10.4712 7.8494 10.1442 7.8494 9.51618C7.8494 8.22718 9.5494 7.77118 10.6104 8.72218L10.1434 9.32218C9.5654 8.67718 8.7604 8.97818 8.7604 9.46118C8.7604 9.70518 8.9104 9.84418 9.4434 10.0332C10.4544 10.4002 10.7544 10.7272 10.7544 11.4552C10.7544 13.0942 8.5984 13.5332 7.6104 12.0832L8.1824 11.5332C8.3884 11.9272 8.7324 12.1322 9.1544 12.1322ZM3.5154 12.8322H2.2154V8.27618H3.5154C4.9654 8.27618 5.9654 9.22018 5.9654 10.5592C5.9654 11.5872 5.2324 12.8312 3.5154 12.8312V12.8322ZM7.2654 12.8322H6.3764V8.27618H7.2654V12.8322ZM30.6594 22.8322C30.6578 23.0526 30.5696 23.2636 30.4137 23.4195C30.2578 23.5753 30.0468 23.6636 29.8264 23.6652H7.5484C18.0814 21.6872 28.8094 15.9322 30.6594 14.7762V22.8322ZM4.5544 9.42118C4.2654 9.14918 3.9094 9.05418 3.3374 9.05418H3.1044V12.0652H3.3374C3.9094 12.0652 4.2814 11.9542 4.5544 11.7102C4.8714 11.4212 5.0484 10.9992 5.0484 10.5602C5.0484 10.1212 4.8704 9.69918 4.5544 9.42118Z" fill="currentColor"/>
</g>
<defs>
<clipPath>
<rect fill="currentColor" transform="translate(0.436401 0.555176)"/>
</clipPath>
</defs>
</symbol>

<symbol id="icon-drop" viewBox="0 0 19 19" fill="none">
<rect fill="currentColor"/>
<path d="M9.15399 1.00001C9.25599 1.00681 9.3512 1.0544 9.4192 1.1224C12.4112 4.2776 15.24 8.03121 15.24 11.574C15.24 15.1168 12.5132 18 9.12 18C5.7268 18 3 15.1032 3 11.574C3 8.04481 5.8288 4.2776 8.8208 1.1224C8.9024 1.034 9.03159 0.986407 9.15399 1.00001ZM9.12 1.99961C6.3048 5.03921 3.81601 8.56161 3.81601 11.574C3.81601 14.5864 6.2096 17.2044 9.12 17.2044C12.0304 17.2044 14.424 14.702 14.424 11.574C14.424 8.44601 11.9352 5.03921 9.12 1.99961Z" fill="currentColor"/>
</symbol>

<symbol id="icon-edit" viewBox="0 0 15 15" fill="none">
<path d="M0 12.0312V14.5703C0 14.8047 0.195312 15 0.429688 15H2.96875C3.04688 15 3.16406 14.9609 3.24219 14.8828L12.3438 5.78125L9.21875 2.65625L0.117188 11.7578C0.0390625 11.8359 0 11.9141 0 12.0312ZM14.7656 3.35938C15.0781 3.04688 15.0781 2.5 14.7656 2.1875L12.8125 0.234375C12.5 -0.078125 11.9531 -0.078125 11.6406 0.234375L10.1172 1.75781L13.2422 4.88281L14.7656 3.35938Z" fill="currentColor"/>
</symbol>

<symbol id="icon-exclamation-fill" viewBox="0 0 16 16" fill="none">
<path fill-rule="evenodd" clip-rule="evenodd" d="M8 16C12.4183 16 16 12.4183 16 8C16 3.58172 12.4183 0 8 0C3.58172 0 0 3.58172 0 8C0 12.4183 3.58172 16 8 16ZM7 9V4H9V9H7ZM7 12V10H9V12H7Z" fill="currentColor"/>
</symbol>

<symbol id="icon-exclamation" viewBox="0 0 16 16" fill="none">
<path fill-rule="evenodd" clip-rule="evenodd" d="M8 15C11.866 15 15 11.866 15 8C15 4.134 11.866 1 8 1C4.13403 1 1 4.134 1 8C1 11.866 4.13403 15 8 15ZM8 16C12.4183 16 16 12.4183 16 8C16 3.58173 12.4183 0 8 0C3.58173 0 0 3.58173 0 8C0 12.4183 3.58173 16 8 16ZM9 4V9H7V4H9ZM9 12V10H7V12H9Z" fill="currentColor"/>
</symbol>

<symbol id="icon-info" viewBox="0 0 16 16" fill="none">
<path fill-rule="evenodd" clip-rule="evenodd" d="M8 6.99382e-07C3.58172 1.08564e-06 -1.08564e-06 3.58172 -6.99382e-07 8C-3.13124e-07 12.4183 3.58172 16 8 16C12.4183 16 16 12.4183 16 8C16 3.58172 12.4183 3.13124e-07 8 6.99382e-07ZM9 7L9 12L7 12L7 7L9 7ZM9 5C9 5.55228 8.55228 6 8 6C7.44771 6 7 5.55229 7 5C7 4.44772 7.44771 4 8 4C8.55228 4 9 4.44772 9 5Z" fill="currentColor"/>
</symbol>

<symbol id="icon-hamburger" viewBox="0 0 12 13" fill="none">
<line x1="0.5" y1="0.5" x2="11.5" y2="0.5" vector-effect="non-scaling-stroke" stroke="currentColor" stroke-linecap="round"/>
<line x1="0.5" y1="6.5" x2="11.5" y2="6.5" vector-effect="non-scaling-stroke" stroke="currentColor" stroke-linecap="round"/>
<line x1="0.5" y1="12.5" x2="11.5" y2="12.5" vector-effect="non-scaling-stroke" stroke="currentColor" stroke-linecap="round"/>
</symbol>

<symbol id="icon-mastercard" viewBox="0 0 33 26" fill="none">
<g clip-path="url(#clip0_5547_7791)">
<path d="M27.2642 21.5163C27.2642 21.8941 27.0086 22.1663 26.642 22.1663C26.2642 22.1663 26.0197 21.8774 26.0197 21.5163C26.0197 21.1552 26.2642 20.8663 26.642 20.8663C27.0086 20.8663 27.2642 21.1552 27.2642 21.5163ZM9.99751 20.8663C9.60307 20.8663 9.37529 21.1552 9.37529 21.5163C9.37529 21.8774 9.60307 22.1663 9.99751 22.1663C10.3586 22.1663 10.6031 21.8941 10.6031 21.5163C10.5975 21.1552 10.3586 20.8663 9.99751 20.8663ZM16.5253 20.8496C16.2253 20.8496 16.042 21.0441 15.9975 21.333H17.0586C17.0086 21.0163 16.8142 20.8496 16.5253 20.8496ZM22.5142 20.8663C22.1364 20.8663 21.9086 21.1552 21.9086 21.5163C21.9086 21.8774 22.1364 22.1663 22.5142 22.1663C22.892 22.1663 23.1364 21.8941 23.1364 21.5163C23.1364 21.1552 22.892 20.8663 22.5142 20.8663ZM28.3975 22.3163C28.3975 22.333 28.4142 22.3441 28.4142 22.3774C28.4142 22.3941 28.3975 22.4052 28.3975 22.4385C28.3808 22.4552 28.3808 22.4663 28.3697 22.483C28.3531 22.4996 28.342 22.5107 28.3086 22.5107C28.292 22.5274 28.2808 22.5274 28.2475 22.5274C28.2308 22.5274 28.2197 22.5274 28.1864 22.5107C28.1697 22.5107 28.1586 22.4941 28.142 22.483C28.1253 22.4663 28.1142 22.4552 28.1142 22.4385C28.0975 22.4107 28.0975 22.3941 28.0975 22.3774C28.0975 22.3496 28.0975 22.333 28.1142 22.3163C28.1142 22.2885 28.1308 22.2718 28.142 22.2552C28.1586 22.2385 28.1697 22.2385 28.1864 22.2274C28.2142 22.2107 28.2308 22.2107 28.2475 22.2107C28.2753 22.2107 28.292 22.2107 28.3086 22.2274C28.3364 22.2441 28.3531 22.2441 28.3697 22.2552C28.3864 22.2663 28.3808 22.2885 28.3975 22.3163ZM28.2753 22.3941C28.3031 22.3941 28.3031 22.3774 28.3197 22.3774C28.3364 22.3607 28.3364 22.3496 28.3364 22.333C28.3364 22.3163 28.3364 22.3052 28.3197 22.2885C28.3031 22.2885 28.292 22.2718 28.2586 22.2718H28.1697V22.4663H28.2142V22.3885H28.2308L28.292 22.4663H28.3364L28.2753 22.3941ZM32.4364 3.22184V22.7774C32.4364 24.2496 31.242 25.4441 29.7697 25.4441H3.10307C1.63085 25.4441 0.436401 24.2496 0.436401 22.7774V3.22184C0.436401 1.74962 1.63085 0.555176 3.10307 0.555176H29.7697C31.242 0.555176 32.4364 1.74962 32.4364 3.22184ZM3.99196 10.9774C3.99196 15.2274 7.44196 18.6718 11.6864 18.6718C13.1975 18.6718 14.6808 18.2163 15.9364 17.3885C11.8864 14.0941 11.9142 7.8774 15.9364 4.58295C14.6808 3.74962 13.1975 3.29962 11.6864 3.29962C7.44196 3.29406 3.99196 6.74407 3.99196 10.9774ZM16.4364 17.0218C20.3531 13.9663 20.3364 8.01073 16.4364 4.93851C12.5364 8.01073 12.5197 13.9718 16.4364 17.0218ZM8.53085 21.2607C8.53085 20.7774 8.21418 20.4607 7.71418 20.4441C7.45862 20.4441 7.1864 20.5218 7.00307 20.8052C6.86973 20.5774 6.64196 20.4441 6.32529 20.4441C6.11418 20.4441 5.90307 20.5218 5.7364 20.7441V20.4996H5.28085V22.5385H5.7364C5.7364 21.4885 5.59751 20.8607 6.2364 20.8607C6.80307 20.8607 6.69196 21.4274 6.69196 22.5385H7.13085C7.13085 21.5218 6.99196 20.8607 7.63085 20.8607C8.19751 20.8607 8.0864 21.4163 8.0864 22.5385H8.54196V21.2607H8.53085ZM11.0253 20.4996H10.5864V20.7441C10.4364 20.5607 10.2253 20.4441 9.9364 20.4441C9.36418 20.4441 8.92529 20.8996 8.92529 21.5163C8.92529 22.1385 9.36418 22.5885 9.9364 22.5885C10.2253 22.5885 10.4364 22.483 10.5864 22.2885V22.5441H11.0253V20.4996ZM13.2753 21.9218C13.2753 21.0885 12.0031 21.4663 12.0031 21.0774C12.0031 20.7607 12.6642 20.8107 13.0308 21.0163L13.2142 20.6552C12.692 20.3163 11.5364 20.3218 11.5364 21.1107C11.5364 21.9052 12.8086 21.5718 12.8086 21.9441C12.8086 22.2941 12.0586 22.2663 11.6586 21.9885L11.4642 22.3385C12.0864 22.7607 13.2753 22.6718 13.2753 21.9218ZM15.242 22.4385L15.1197 22.0607C14.9086 22.1774 14.442 22.3052 14.442 21.833V20.9107H15.1697V20.4996H14.442V19.8774H13.9864V20.4996H13.5642V20.9052H13.9864V21.833C13.9864 22.8107 14.9475 22.633 15.242 22.4385ZM15.9808 21.6941H17.5086C17.5086 20.7941 17.0975 20.4385 16.542 20.4385C15.9531 20.4385 15.5308 20.8774 15.5308 21.5107C15.5308 22.6496 16.7864 22.8385 17.4086 22.2996L17.1975 21.9663C16.7642 22.3218 16.1086 22.2885 15.9808 21.6941ZM19.2642 20.4996C19.0086 20.3885 18.6197 20.3996 18.4197 20.7441V20.4996H17.9642V22.5385H18.4197V21.3885C18.4197 20.7441 18.9475 20.8274 19.1308 20.9218L19.2642 20.4996ZM19.8531 21.5163C19.8531 20.883 20.4975 20.6774 21.0031 21.0496L21.2142 20.6885C20.5697 20.183 19.3975 20.4607 19.3975 21.5218C19.3975 22.6218 20.642 22.8441 21.2142 22.3552L21.0031 21.9941C20.492 22.3552 19.8531 22.1385 19.8531 21.5163ZM23.5586 20.4996H23.1031V20.7441C22.642 20.133 21.442 20.4774 21.442 21.5163C21.442 22.583 22.6864 22.8885 23.1031 22.2885V22.5441H23.5586V20.4996ZM25.4308 20.4996C25.2975 20.433 24.8197 20.3385 24.5864 20.7441V20.4996H24.1475V22.5385H24.5864V21.3885C24.5864 20.7774 25.0864 20.8163 25.2975 20.9218L25.4308 20.4996ZM27.6697 19.6718H27.2308V20.7441C26.7753 20.1385 25.5697 20.4607 25.5697 21.5163C25.5697 22.5941 26.8197 22.883 27.2308 22.2885V22.5441H27.6697V19.6718ZM28.092 15.4996V15.7552H28.1364V15.4996H28.242V15.4552H27.9864V15.4996H28.092ZM28.4586 22.3774C28.4586 22.3496 28.4586 22.3163 28.442 22.2885C28.4253 22.2718 28.4142 22.2441 28.3975 22.2274C28.3808 22.2107 28.3531 22.1996 28.3364 22.183C28.3086 22.183 28.2753 22.1663 28.2475 22.1663C28.2308 22.1663 28.2031 22.183 28.1697 22.183C28.142 22.1996 28.1253 22.2107 28.1086 22.2274C28.0808 22.2441 28.0642 22.2718 28.0642 22.2885C28.0475 22.3163 28.0475 22.3496 28.0475 22.3774C28.0475 22.3941 28.0475 22.4218 28.0642 22.4552C28.0642 22.4718 28.0808 22.4996 28.1086 22.5163C28.1253 22.533 28.1364 22.5441 28.1697 22.5607C28.1975 22.5774 28.2308 22.5774 28.2475 22.5774C28.2753 22.5774 28.3086 22.5774 28.3364 22.5607C28.3531 22.5441 28.3808 22.533 28.3975 22.5163C28.4142 22.4996 28.4253 22.4718 28.442 22.4552C28.4586 22.4218 28.4586 22.3941 28.4586 22.3774ZM28.6364 15.4496H28.5586L28.4697 15.6441L28.3808 15.4496H28.3031V15.7496H28.3475V15.5218L28.4364 15.7163H28.4975L28.5753 15.5218V15.7496H28.6364V15.4496ZM28.8808 10.9774C28.8808 6.74407 25.4308 3.29406 21.1864 3.29406C19.6753 3.29406 18.192 3.74962 16.9364 4.5774C20.942 7.87184 21.0031 14.1052 16.9364 17.383C18.192 18.2163 19.6864 18.6663 21.1864 18.6663C25.4308 18.6718 28.8808 15.2274 28.8808 10.9774Z" fill="currentColor"/>
</g>
<defs>
<clipPath>
<rect fill="currentColor" transform="translate(0.436401 0.555176)"/>
</clipPath>
</defs>
</symbol>

<symbol id="icon-minus-small" viewBox="0 0 6 6" fill="none">
<path d="M1 3L5 3" vector-effect="non-scaling-stroke" stroke="currentColor" stroke-linecap="round"/>
</symbol>

<symbol id="icon-minus" viewBox="0 0 18 18" fill="none">
<path d="M9 9H0.5 M9 9h8.5" vector-effect="non-scaling-stroke" stroke="currentColor" stroke-linecap="round" stroke-linejoin="round"/>
</symbol>


<symbol id="icon-notifications" viewBox="0 0 24 24" fill="none">
<mask style="mask-type:alpha" maskUnits="userSpaceOnUse" x="0" y="0">
<rect fill="currentColor"/>
</mask>
<g mask="url(#mask0_1001_3463)">
<path d="M3 10.0001C3 8.67445 3.2766 7.41836 3.8298 6.23183C4.383 5.0453 5.15191 4.01549 6.13652 3.1424L6.85 3.8501C5.95 4.63344 5.25 5.55427 4.75 6.6126C4.25 7.67094 4 8.8001 4 10.0001H3ZM20 10.0001C20 8.8001 19.75 7.67094 19.25 6.6126C18.75 5.55427 18.05 4.63344 17.15 3.8501L17.8635 3.1424C18.8481 4.01549 19.617 5.0453 20.1702 6.23183C20.7234 7.41836 21 8.67445 21 10.0001H20ZM4.5 18.7309V17.7309H6.5V10.2309C6.5 8.89883 6.92308 7.72735 7.76923 6.71645C8.61538 5.70555 9.6923 5.07189 11 4.81548V4.11548C11 3.82701 11.0946 3.58823 11.2837 3.39913C11.4728 3.21003 11.7115 3.11548 12 3.11548C12.2885 3.11548 12.5272 3.21003 12.7163 3.39913C12.9054 3.58823 13 3.82701 13 4.11548V4.81548C14.3077 5.07189 15.3846 5.70555 16.2308 6.71645C17.0769 7.72735 17.5 8.89883 17.5 10.2309V17.7309H19.5V18.7309H4.5ZM12 21.6155C11.5654 21.6155 11.1875 21.4613 10.8663 21.153C10.5452 20.8446 10.3846 20.4604 10.3846 20.0001H13.6154C13.6154 20.4604 13.4612 20.8446 13.1529 21.153C12.8445 21.4613 12.4602 21.6155 12 21.6155ZM7.5 17.7309H16.5V10.2309C16.5 8.97703 16.0635 7.91356 15.1904 7.04048C14.3173 6.16741 13.2538 5.73088 12 5.73088C10.7462 5.73088 9.68269 6.16741 8.80963 7.04048C7.93654 7.91356 7.5 8.97703 7.5 10.2309V17.7309Z" fill="currentColor"/>
</g>
</symbol>

<symbol id="icon-photo" viewBox="0 0 16 16" fill="none">
<path d="M16 14.2083V1.79167C16 0.791667 15.2083 0 14.2083 0H1.79167C0.791667 0 0 0.791667 0 1.79167V14.2083C0 15.2083 0.791667 16 1.79167 16H14.2083C15.2083 16 16 15.2083 16 14.2083ZM5.25 9.75L7.125 12L9.875 8.45833C10.0417 8.25 10.4167 8.25 10.5833 8.45833L13.7083 12.625C13.9167 12.9167 13.7083 13.3333 13.3333 13.3333H2.66667C2.29167 13.3333 2.125 12.9167 2.33333 12.625L4.54167 9.79167C4.70833 9.54167 5.04167 9.54167 5.25 9.75Z" fill="currentColor"/>
</symbol>

<symbol id="icon-play" viewBox="0 0 19 19" fill="none">
<rect fill="currentColor"/>
<path d="M17.1905 9.29268L5.04762 16.4744L5.04762 2.11101L17.1905 9.29268Z" fill="currentColor"/>
</symbol>

<symbol id="icon-plus-small" viewBox="0 0 6 6" fill="none">
<path d="M1 3L5 3" vector-effect="non-scaling-stroke" stroke="currentColor" stroke-linecap="round"/>
<path d="M3 1L3 5" vector-effect="non-scaling-stroke" stroke="currentColor" stroke-linecap="round"/>
</symbol>

<symbol id="icon-plus" viewBox="0 0 18 18" fill="none">
<path d="M9.00005 9H0.514771M9.00005 9V0.514719M9.00005 9V17.4853M9.00005 9H17.4853" stroke="currentColor" stroke-linecap="round" vector-effect="non-scaling-stroke" stroke-linejoin="round"/>
</symbol>

<symbol id="icon-question-fill" viewBox="0 0 16 16" fill="none">
<path fill-rule="evenodd" clip-rule="evenodd" d="M8 16C12.4183 16 16 12.4183 16 8C16 3.58173 12.4183 0 8 0C3.58173 0 0 3.58173 0 8C0 12.4183 3.58173 16 8 16ZM8.56653 3.04044C6.91394 2.77753 5.44916 3.82916 5.03601 5.25638C4.8858 5.74466 5.22382 6.19537 5.7121 6.19537H5.8623C6.20032 6.19537 6.46326 5.97 6.57593 5.66953C6.83881 4.95593 7.59003 4.46765 8.41632 4.65546C9.16748 4.80569 9.73083 5.55685 9.6933 6.34558C9.64941 6.95981 9.20837 7.29218 8.71436 7.66443C8.36255 7.92953 7.98389 8.21487 7.7027 8.63669V8.67422C7.68402 8.71152 7.66534 8.74652 7.64667 8.78033C7.63251 8.80603 7.61835 8.83105 7.60419 8.8559L7.58954 8.88153C7.5741 8.90854 7.55865 8.93558 7.54321 8.96326C7.52124 9.00269 7.49927 9.04343 7.47729 9.08737C7.47729 9.12494 7.47736 9.12494 7.43976 9.16251V9.20004C7.32709 9.50052 7.28955 9.80099 7.28955 10.2141H8.867C8.867 9.8761 8.97968 9.61319 9.09235 9.35028C9.12988 9.35028 9.12988 9.31274 9.12988 9.27518C9.18274 9.19592 9.2356 9.11664 9.28845 9.05048C9.31073 9.02255 9.33301 8.99698 9.35529 8.9747C9.39282 8.9747 9.39282 8.93713 9.39282 8.93713C9.41577 8.91418 9.43872 8.8877 9.46289 8.85989L9.46472 8.8577L9.46545 8.85678C9.51935 8.79437 9.57874 8.72556 9.6557 8.67422C9.77985 8.556 9.90955 8.44244 10.0391 8.32898C10.733 7.72156 11.4231 7.11734 11.2332 5.81976C11.0454 4.43011 9.95618 3.22821 8.56653 3.04044ZM7.28955 11.0029H8.867V12.6179H7.28955V11.0029Z" fill="currentColor"/>
</symbol>

<symbol id="icon-question" viewBox="0 0 16 16" fill="none">
<circle cx="8" cy="8" r="7.5" vector-effect="non-scaling-stroke" stroke="currentColor"/>
<path d="M8.867 11.0029H7.28953V12.6179H8.867V11.0029Z" fill="currentColor"/>
<path d="M5.03601 5.25639C5.44916 3.82916 6.91395 2.77752 8.56653 3.04043C9.9562 3.22822 11.0454 4.4301 11.2332 5.81977C11.4585 7.35968 10.4445 7.92306 9.65573 8.67423C9.54305 8.74935 9.46794 8.86203 9.39282 8.93714C9.39282 8.93714 9.39282 8.9747 9.35526 8.9747C9.28014 9.04982 9.20503 9.1625 9.12991 9.27517C9.12991 9.31273 9.12991 9.35029 9.09235 9.35029C8.97967 9.6132 8.867 9.87611 8.867 10.2141H7.28953C7.28953 9.80099 7.32709 9.50052 7.43977 9.20005V9.1625C7.47733 9.12494 7.47733 9.12494 7.47733 9.08738C7.55244 8.93714 7.62756 8.82447 7.70268 8.67423V8.63667C8.37873 7.62259 9.61817 7.39724 9.69329 6.34559C9.73085 5.55686 9.16747 4.80569 8.41629 4.65545C7.59 4.46766 6.83883 4.95592 6.57592 5.66954C6.46324 5.97001 6.20033 6.19536 5.8623 6.19536H5.71207C5.2238 6.19536 4.88578 5.74466 5.03601 5.25639Z" fill="currentColor"/>
</symbol>

<symbol id="icon-refund" viewBox="0 0 12 16" fill="none">
<path d="M1 3.5C0.723858 3.5 0.5 3.72386 0.5 4C0.5 4.27614 0.723858 4.5 1 4.5V3.5ZM11.3536 4.35355C11.5488 4.15829 11.5488 3.84171 11.3536 3.64645L8.17157 0.464466C7.97631 0.269204 7.65973 0.269204 7.46447 0.464466C7.2692 0.659728 7.2692 0.976311 7.46447 1.17157L10.2929 4L7.46447 6.82843C7.2692 7.02369 7.2692 7.34027 7.46447 7.53553C7.65973 7.7308 7.97631 7.7308 8.17157 7.53553L11.3536 4.35355ZM1 4.5H11V3.5H1V4.5Z" fill="currentColor"/>
<path d="M0.646447 11.6464C0.451184 11.8417 0.451184 12.1583 0.646447 12.3536L3.82843 15.5355C4.02369 15.7308 4.34027 15.7308 4.53553 15.5355C4.7308 15.3403 4.7308 15.0237 4.53553 14.8284L1.70711 12L4.53553 9.17157C4.7308 8.97631 4.7308 8.65973 4.53553 8.46447C4.34027 8.2692 4.02369 8.2692 3.82843 8.46447L0.646447 11.6464ZM11 12.5C11.2761 12.5 11.5 12.2761 11.5 12C11.5 11.7239 11.2761 11.5 11 11.5V12.5ZM1 12.5H11V11.5H1V12.5Z" fill="currentColor"/>
</symbol>

<symbol id="icon-separator" viewBox="0 0 8 8" fill="none">
<path d="M2.25 7.5L5.75 4L2.25 0.5" stroke="currentColor"/>
</symbol>

<symbol id="icon-sound-off" viewBox="0 0 19 19" fill="none">
<rect fill="currentColor"/>
<path d="M12.0156 1C14.0469 1.4375 15.7188 2.48438 17.0312 4.14062C18.3438 5.76562 19 7.64062 19 9.76562C19 11.8906 18.3438 13.7812 17.0312 15.4375C15.7188 17.0625 14.0469 18.0938 12.0156 18.5312V16.4688C13.4844 16.0312 14.6719 15.2031 15.5781 13.9844C16.5156 12.7656 16.9844 11.3594 16.9844 9.76562C16.9844 8.17188 16.5156 6.76562 15.5781 5.54688C14.6719 4.32812 13.4844 3.5 12.0156 3.0625V1ZM14.5 9.76562C14.5 11.6406 13.6719 12.9844 12.0156 13.7969V5.73438C12.7031 6.07812 13.2812 6.64062 13.75 7.42188C14.25 8.20312 14.5 8.98438 14.5 9.76562ZM1 6.76562H4.98438L10 1.75V17.7812L4.98438 12.7656H1V6.76562Z" fill="currentColor"/>
</symbol>

<symbol id="icon-sound-on" viewBox="0 0 19 19" fill="none">
<rect fill="currentColor"/>
<path d="M12.4 14L11 12.6L13.6 10L11 7.4L12.4 6L15 8.6L17.6 6L19 7.4L16.4 10L19 12.6L17.6 14L15 11.4L12.4 14ZM0 13V7H4L9 2V18L4 13H0Z" fill="currentColor"/>
</symbol>

<symbol id="icon-sync" viewBox="0 0 16 16" fill="none">
<rect fill="currentColor"/>
<path d="M0.15385 15.6923V14.6923H3.25L2.19615 13.65C1.41923 12.8962 0.858975 12.0692 0.515375 11.1692C0.171792 10.2692 0 9.35768 0 8.4346C0 6.8282 0.458008 5.37467 1.37402 4.07402C2.29006 2.77339 3.49872 1.84487 5 1.28845V2.35C3.78718 2.86025 2.81732 3.66826 2.0904 4.77402C1.36347 5.87981 1 7.1 1 8.4346C1 9.24872 1.15449 10.0388 1.46348 10.8048C1.77244 11.5708 2.25257 12.2795 2.90385 12.9308L3.92308 13.95V10.9231H4.92308V15.6923H0.15385ZM10 15.4038V14.3423C11.2128 13.8321 12.1827 13.024 12.9096 11.9183C13.6365 10.8125 14 9.5923 14 8.2577C14 7.44358 13.8455 6.65352 13.5365 5.8875C13.2276 5.12147 12.7474 4.41281 12.0962 3.76152L11.0769 2.7423V5.76923H10.0769V1H14.8462V2H11.75L12.8039 3.0423C13.5692 3.80768 14.1266 4.63749 14.476 5.53173C14.8253 6.42596 15 7.33462 15 8.2577C15 9.8641 14.542 11.3176 13.626 12.6183C12.7099 13.9189 11.5013 14.8474 10 15.4038Z" fill="currentColor"/>
</symbol>

<symbol id="icon-trash" viewBox="0 0 16 16" fill="none">
<path fill-rule="evenodd" clip-rule="evenodd" d="M5 0H6.5H9.5H11V1.5V2H12.9943H14H15.5C15.7761 2 16 2.22386 16 2.5C16 2.77614 15.7761 3 15.5 3H13.8929L12.5 16H3.5L2.10714 3H0.5C0.223858 3 0 2.77614 0 2.5C0 2.22386 0.223858 2 0.5 2H2H3.00572H5V1.5V0ZM11 3H9.5H6.5H5H3.11287L4.39858 15H11.6014L12.8871 3H11Z" fill="currentColor"/>
</symbol>

<symbol id="icon-unknown" viewBox="0 0 33 26" fill="none">
<g clip-path="url(#clip0_5547_7787)">
<path fill-rule="evenodd" clip-rule="evenodd" d="M13.2354 0.555176H19.6354C25.669 0.555176 28.6866 0.555176 30.5602 2.38643C31.9106 3.70361 32.2882 5.60049 32.3938 8.7583H0.477025C0.582625 5.60049 0.960225 3.70361 2.31062 2.38643C4.18422 0.555176 7.20183 0.555176 13.2354 0.555176ZM19.6354 25.5552H13.2354C7.20183 25.5552 4.18422 25.5552 2.31062 23.7239C0.435425 21.8942 0.435425 18.9474 0.435425 13.0552C0.435425 12.3646 0.435425 11.7146 0.438625 11.1021H32.4322C32.4354 11.7146 32.4354 12.3646 32.4354 13.0552C32.4354 18.9474 32.4354 21.8942 30.5602 23.7239C28.6866 25.5552 25.669 25.5552 19.6354 25.5552ZM6.83542 18.1333C6.51717 18.1333 6.21194 18.2568 5.9869 18.4765C5.76185 18.6963 5.63543 18.9944 5.63543 19.3052C5.63543 19.616 5.76185 19.914 5.9869 20.1338C6.21194 20.3536 6.51717 20.4771 6.83542 20.4771H13.2354C13.5537 20.4771 13.8589 20.3536 14.084 20.1338C14.309 19.914 14.4354 19.616 14.4354 19.3052C14.4354 18.9944 14.309 18.6963 14.084 18.4765C13.8589 18.2568 13.5537 18.1333 13.2354 18.1333H6.83542ZM17.2354 18.1333C16.9172 18.1333 16.6119 18.2568 16.3869 18.4765C16.1619 18.6963 16.0354 18.9944 16.0354 19.3052C16.0354 19.616 16.1619 19.914 16.3869 20.1338C16.6119 20.3536 16.9172 20.4771 17.2354 20.4771H19.6354C19.9537 20.4771 20.2589 20.3536 20.484 20.1338C20.709 19.914 20.8354 19.616 20.8354 19.3052C20.8354 18.9944 20.709 18.6963 20.484 18.4765C20.2589 18.2568 19.9537 18.1333 19.6354 18.1333H17.2354Z" fill="currentColor"/>
</g>
<defs>
<clipPath>
<rect fill="currentColor" transform="translate(0.435425 0.555176)"/>
</clipPath>
</defs>
</symbol>

<symbol id="icon-video" viewBox="0 0 16 16" fill="none">
<rect fill="currentColor"/>
<path d="M12.4583 7.125V3.90234C12.4583 3.42969 12.0417 3 11.5417 3H0.875C0.416667 3 0 3.42969 0 3.90234V13.0977C0 13.5703 0.416667 14 0.875 14H11.5417C12.0417 14 12.4583 13.5703 12.4583 13.0977V9.875L14.5 11.9805C15.0417 12.5391 16 12.1523 16 11.3359V5.66406C16 4.84766 15.0417 4.41797 14.5 5.01953L12.4583 7.125Z" fill="currentColor"/>
</symbol>

<symbol id="icon-visa" viewBox="0 0 33 28" fill="none">
<path d="M26.5534 12.5196C26.5534 12.5196 26.9754 14.7499 27.0704 15.2171H25.2154L26.1044 12.6092C26.0934 12.6275 26.2874 12.0632 26.3984 11.7158L26.5534 12.5196ZM32.4364 3.44986V24.5501C32.4362 25.3132 32.1551 26.045 31.655 26.5846C31.1549 27.1241 30.4767 27.4274 29.7694 27.4277H3.10242C2.39517 27.4274 1.71697 27.1241 1.21686 26.5846C0.716762 26.045 0.43569 25.3132 0.435425 24.5501V3.44986C0.43569 2.68677 0.716762 1.955 1.21686 1.41541C1.71697 0.875818 2.39517 0.572552 3.10242 0.572266H29.7694C30.4767 0.572552 31.1549 0.875818 31.655 1.41541C32.1551 1.955 32.4362 2.68677 32.4364 3.44986ZM8.90843 18.5079L12.4194 9.20506H10.0584L7.87542 15.5591L7.63642 14.2708L6.85842 9.99055C6.73042 9.39712 6.33642 9.2288 5.84742 9.20506H2.25342L2.21442 9.39064C3.0375 9.60851 3.82702 9.95376 4.55842 10.4157L6.54742 18.5079H8.90843ZM14.1534 18.5198L15.5534 9.20506H13.3204L11.9264 18.5198H14.1534ZM21.9254 15.4749C21.9364 14.4143 21.3364 13.6051 20.0534 12.9394C19.2704 12.5132 18.7924 12.2262 18.7924 11.7881C18.8034 11.3921 19.1984 10.9843 20.0754 10.9843C20.6466 10.9669 21.2142 11.0878 21.7364 11.3382L21.9364 11.4396L22.2424 9.42517C21.604 9.16148 20.926 9.02724 20.2424 9.02919C18.0364 9.02919 16.4864 10.3002 16.4754 12.1096C16.4584 13.4465 17.5864 14.1899 18.4314 14.6387C19.2924 15.0941 19.5874 15.394 19.5874 15.7954C19.5764 16.419 18.8874 16.706 18.2484 16.706C17.3594 16.706 16.8814 16.5561 16.1534 16.2086L15.8594 16.0586L15.5484 18.1508C16.0704 18.4086 17.0374 18.6363 18.0374 18.6482C20.3814 18.6536 21.9094 17.4009 21.9264 15.4717L21.9254 15.4749ZM29.7694 18.5198L27.9694 9.20506H26.2414C25.7084 9.20506 25.3024 9.37338 25.0744 9.97868L21.7574 18.5208H24.1014C24.1014 18.5208 24.4844 17.3696 24.5684 17.1247H27.4354C27.5024 17.4548 27.7024 18.5208 27.7024 18.5208L29.7694 18.5198Z" fill="currentColor"/>
</symbol>

<symbol id="icon-wave" viewBox="0 0 19 19" fill="none">
<g clip-path="url(#clip0_4_1599)">
<rect fill="currentColor"/>
<path fill-rule="evenodd" clip-rule="evenodd" d="M0.923776 7.00034L0.923973 7.00002L0.925084 6.99827L0.932289 6.98706C0.939106 6.97652 0.949925 6.95999 0.964639 6.93805C0.99408 6.89417 1.03904 6.82878 1.09867 6.74667C1.2181 6.58223 1.39548 6.35198 1.62397 6.0937C2.08428 5.57339 2.73585 4.95782 3.5227 4.52916C4.30425 4.10338 5.19995 3.87129 6.1789 4.0751C7.16043 4.27944 8.29916 4.93728 9.53435 6.43475C10.8646 8.04741 12.1481 8.81933 13.366 8.9718C14.5895 9.12498 15.6334 8.6391 16.4499 7.98267C17.2631 7.32889 17.8889 6.47764 18.3064 5.80663C18.5169 5.46831 18.6785 5.16928 18.7879 4.95378C18.8427 4.84591 18.8846 4.75861 18.9132 4.69737C18.9275 4.66674 18.9385 4.64259 18.9461 4.62562L18.955 4.60561L18.9576 4.59979L18.9584 4.59796L18.9587 4.59731C18.9588 4.59706 18.9589 4.59685 18.5001 4.3981L18.9589 4.59685C19.0686 4.34346 18.9522 4.04906 18.6988 3.9393C18.4455 3.82957 18.1512 3.94587 18.0414 4.19907L18.0413 4.19929L18.0413 4.19935L18.0401 4.20206L18.034 4.21579C18.0282 4.22851 18.0193 4.24823 18.0071 4.27428C17.9828 4.32641 17.9457 4.40376 17.8963 4.50102C17.7974 4.69579 17.6499 4.96895 17.4574 5.27833C17.0689 5.90272 16.5129 6.64892 15.8233 7.20331C15.137 7.75505 14.357 8.08806 13.4902 7.97955C12.6177 7.87032 11.5443 7.29996 10.3058 5.79843C8.97222 4.1817 7.64907 3.35973 6.38272 3.09609C5.11377 2.83191 3.97557 3.14367 3.0443 3.65101C2.11835 4.15547 1.3782 4.8623 0.874994 5.4311C0.621728 5.71738 0.424396 5.97336 0.289555 6.15902C0.222055 6.25196 0.169992 6.32759 0.134192 6.38095C0.116286 6.40765 0.10243 6.4288 0.092728 6.44379L0.0812964 6.4616L0.0779369 6.4669L0.0768501 6.46863L0.0764554 6.46925C0.0762996 6.4695 0.0761602 6.46973 0.499741 6.73467L0.0761602 6.46973C-0.0702767 6.70384 0.0008021 7.01234 0.234919 7.15878C0.468931 7.30515 0.777259 7.2342 0.923776 7.00034Z" fill="currentColor"/>
<path fill-rule="evenodd" clip-rule="evenodd" d="M0.923776 14.0003L0.923973 14L0.925084 13.9983L0.932289 13.9871C0.939106 13.9765 0.949925 13.96 0.964639 13.9381C0.99408 13.8942 1.03904 13.8288 1.09867 13.7467C1.2181 13.5822 1.39548 13.352 1.62397 13.0937C2.08428 12.5734 2.73585 11.9578 3.5227 11.5292C4.30425 11.1034 5.19995 10.8713 6.1789 11.0751C7.16043 11.2794 8.29916 11.9373 9.53435 13.4347C10.8646 15.0474 12.1481 15.8193 13.366 15.9718C14.5895 16.125 15.6334 15.6391 16.4499 14.9827C17.2631 14.3289 17.8889 13.4776 18.3064 12.8066C18.5169 12.4683 18.6785 12.1693 18.7879 11.9538C18.8427 11.8459 18.8846 11.7586 18.9132 11.6974C18.9275 11.6667 18.9385 11.6426 18.9461 11.6256L18.955 11.6056L18.9576 11.5998L18.9584 11.598L18.9587 11.5973C18.9588 11.5971 18.9589 11.5968 18.5001 11.3981L18.9589 11.5968C19.0686 11.3435 18.9522 11.0491 18.6988 10.9393C18.4455 10.8296 18.1512 10.9459 18.0414 11.1991L18.0413 11.1993L18.0413 11.1994L18.0401 11.2021L18.034 11.2158C18.0282 11.2285 18.0193 11.2482 18.0071 11.2743C17.9828 11.3264 17.9457 11.4038 17.8963 11.501C17.7974 11.6958 17.6499 11.9689 17.4574 12.2783C17.0689 12.9027 16.5129 13.6489 15.8233 14.2033C15.137 14.755 14.357 15.0881 13.4902 14.9795C12.6177 14.8703 11.5443 14.3 10.3058 12.7984C8.97222 11.1817 7.64907 10.3597 6.38272 10.0961C5.11377 9.83191 3.97557 10.1437 3.0443 10.651C2.11835 11.1555 1.3782 11.8623 0.874994 12.4311C0.621728 12.7174 0.424396 12.9734 0.289555 13.159C0.222055 13.252 0.169992 13.3276 0.134192 13.381C0.116286 13.4076 0.10243 13.4288 0.092728 13.4438L0.0812964 13.4616L0.0779369 13.4669L0.0768501 13.4686L0.0764554 13.4693C0.0762996 13.4695 0.0761602 13.4697 0.499741 13.7347L0.0761602 13.4697C-0.0702767 13.7038 0.0008021 14.0123 0.234919 14.1588C0.468931 14.3052 0.777259 14.2342 0.923776 14.0003Z" fill="currentColor"/>
</g>
<defs>
<clipPath>
<rect fill="currentColor"/>
</clipPath>
</defs>
</symbol>

</svg>
