<?xml version="1.0" encoding="UTF-8"?>
<svg xmlns="http://www.w3.org/2000/svg" xmlns:xlink="http://www.w3.org/1999/xlink" width="0" height="0">
  <defs>
		<symbol id="icon-diamond" viewBox="0 0 9 8" fill="none">
			<rect x="4.75378" y="0.707107" width="4.65685" height="4.65685" transform="rotate(45 4.75378 0.707107)" vector-effect="non-scaling-stroke" stroke="black" fill="currentColor"/>
		</symbol>
		<symbol id="icon-star" viewBox="0 0 32 32" fill="none">
			<path d="M16 1.61804L19.1167 11.2102L19.229 11.5557H19.5922H29.6781L21.5184 17.484L21.2246 17.6976L21.3368 18.0431L24.4535 27.6353L16.2939 21.7069L16 21.4934L15.7061 21.7069L7.54649 27.6353L10.6632 18.0431L10.7754 17.6976L10.4816 17.484L2.32194 11.5557H12.4078H12.771L12.8833 11.2102L16 1.61804Z" fill="currentColor" vector-effect="non-scaling-stroke" stroke="black"/>
		</symbol>

		<symbol viewBox="0 0 41 27" fill="none" id="icon-quotes">
			<path
				d="M30.1795 26.3877L30.2418 26.3672L30.2966 26.3313C35.4726 22.9438 40 17.3939 40 10.8388C40 8.08731 39.2235 5.50672 37.653 3.60402C36.0727 1.68949 33.7187 0.5 30.6607 0.5C26.8076 0.5 23.5084 3.00714 23.5084 7.04771C23.5084 10.1126 25.5558 13.2344 29.0204 13.2344C31.6567 13.2344 33.8179 11.7708 34.3375 9.5064L34.338 9.50404C34.4337 9.07738 34.507 8.83308 34.6297 8.6778C34.7147 8.57023 34.8684 8.45036 35.3082 8.45036C35.367 8.45036 35.4801 8.48189 35.6386 8.71131C35.7945 8.93689 35.933 9.27204 36.0463 9.66769C36.2723 10.4565 36.3573 11.3353 36.3573 11.6512C36.3573 13.3691 35.5212 15.6226 34.242 17.7455C32.9669 19.8616 31.3051 21.7591 29.7473 22.7878C29.5916 22.8906 29.1427 23.219 28.7309 23.5686C28.5252 23.7432 28.3156 23.9342 28.1534 24.1127C28.0729 24.2013 27.9932 24.2986 27.9308 24.3984C27.8784 24.4821 27.7914 24.6387 27.7914 24.8298C27.7914 25.5017 28.1127 26.0124 28.6097 26.284C29.0827 26.5425 29.6627 26.5584 30.1795 26.3877ZM7.73337 26.3672L7.78819 26.3313C12.9642 22.9438 17.4916 17.3939 17.4916 10.8388C17.4916 8.08731 16.7151 5.50672 15.1446 3.60402C13.5643 1.68949 11.2103 0.5 8.15228 0.5C4.29925 0.5 1 3.00715 1 7.04771C1 10.1126 3.04741 13.2344 6.51199 13.2344C9.14827 13.2344 11.3095 11.7708 11.8291 9.5064L11.8296 9.50404C11.9253 9.07738 11.9987 8.83308 12.1213 8.6778C12.2063 8.57023 12.36 8.45036 12.7998 8.45036C12.8586 8.45036 12.9717 8.48189 13.1302 8.71131C13.2861 8.93689 13.4246 9.27204 13.5379 9.66769C13.7639 10.4565 13.8489 11.3353 13.8489 11.6512C13.8489 13.3691 13.0128 15.6226 11.7336 17.7455C10.4585 19.8616 8.79667 21.7591 7.23887 22.7878C7.08318 22.8906 6.63432 23.219 6.22255 23.5686C6.01681 23.7432 5.80722 23.9342 5.645 24.1127C5.56452 24.2013 5.48483 24.2986 5.42238 24.3984C5.36996 24.4821 5.28297 24.6387 5.28297 24.8298C5.28297 25.5017 5.60426 26.0124 6.10135 26.284C6.57429 26.5425 7.15435 26.5584 7.67115 26.3877L7.73337 26.3672Z" stroke="black" fill="#FFEC66"
			/>
		</symbol>

		<symbol id="profile-birthday" viewBox="0 0 80 80" fill="none">
			<path d="M46.4576 35.2731L34.503 33.1635C33.7935 33.0383 33.4452 32.2266 33.8433 31.6262L44.2157 15.9797C44.7381 15.1916 45.9613 15.5017 46.0452 16.4434L47.6275 34.1996C47.6859 34.8553 47.1059 35.3875 46.4576 35.2731Z" fill="#FFEC66" vector-effect="non-scaling-stroke" stroke="black"/>
			<path fill-rule="evenodd" clip-rule="evenodd" d="M46.3197 18.1258L46.6309 21.6182L40.8053 21.2863L43.0249 17.9381L46.3197 18.1258Z" fill="#C9D6AB"/>
			<path fill-rule="evenodd" clip-rule="evenodd" d="M47.3006 29.1472L36.0354 28.5054L38.255 25.1572L46.9894 25.6548L47.3006 29.1472Z" fill="#C9D6AB"/>
			<path d="M46.4576 35.2731L34.503 33.1635C33.7935 33.0383 33.4452 32.2266 33.8433 31.6262L44.2157 15.9797C44.7381 15.1916 45.9613 15.5017 46.0452 16.4434L47.6275 34.1996C47.6859 34.8553 47.1059 35.3875 46.4576 35.2731Z" vector-effect="non-scaling-stroke" stroke="black"/>
			<circle cx="45" cy="16.0001" r="3.5" fill="#FFEC66" vector-effect="non-scaling-stroke" stroke="black"/>
			<path d="M87.6648 86.4608C107.181 88.9836 124.653 74.8993 127.217 55.0222L130.027 33.658C130.027 33.658 130.599 27.182 134.633 27.8296C139.023 28.5544 138.965 33.8086 138.885 36.188C138.787 38.5645 136.607 63.6952 136.607 63.6952C136.607 63.6952 136.045 72.8968 143.378 73.8499C146.063 74.422 150.957 72.8742 152.516 67.4445C154.075 62.0149 157.651 36.0103 157.651 36.0103C157.651 36.0103 157.552 30.1413 162.165 30.7374C166.779 31.3334 166.93 36.7695 166.417 39.0958C165.904 41.4221 163.783 66.084 159.567 77.2406L160.167 75.3888C151.997 107.04 119.205 128.183 83.3445 123.551C44.7458 118.558 19.2801 86.4152 21.2928 49.3674L21.9813 42.7449C22.2088 31.3347 25.0692 21.8131 25.6389 19.4778C26.4755 16.0822 27.4131 14.1941 29.8499 14.7068C30.7577 14.8935 31.2954 25.0129 31.4042 27.81C31.5129 30.6071 33.2984 30.8283 33.2984 30.8283L48.4877 32.8024C50.4166 33.0473 50.4039 32.5666 51.0142 31.4343C51.6245 30.3019 53.0049 25.1741 53.8755 22.4651C54.8442 19.4962 55.6272 18.0979 56.8102 18.6245C57.9932 19.1511 59.326 22.003 57.6734 32.681C57.5965 33.1468 56.0516 45.9592 56.0516 45.9592C53.4696 65.8333 68.1698 83.923 87.6856 86.4458" fill="#C1A188"/>
			<path d="M87.6648 86.4608C107.181 88.9836 124.653 74.8993 127.217 55.0222L130.027 33.658C130.027 33.658 130.599 27.182 134.633 27.8296C139.023 28.5544 138.965 33.8086 138.885 36.188C138.787 38.5645 136.607 63.6952 136.607 63.6952C136.607 63.6952 136.045 72.8968 143.378 73.8499C146.063 74.422 150.957 72.8742 152.516 67.4445C154.075 62.0149 157.651 36.0103 157.651 36.0103C157.651 36.0103 157.552 30.1413 162.165 30.7374C166.779 31.3334 166.93 36.7695 166.417 39.0958C165.904 41.4221 163.783 66.084 159.567 77.2406L160.167 75.3888C151.997 107.04 119.205 128.183 83.3445 123.551C44.7458 118.558 19.2801 86.4152 21.2928 49.3674L21.9813 42.7449C22.2088 31.3347 25.0692 21.8131 25.6388 19.4778C26.4756 16.0822 27.4131 14.1941 29.8498 14.7068C30.7577 14.8935 31.2954 25.0129 31.4042 27.81C31.5129 30.6071 33.2984 30.8283 33.2984 30.8283L48.4877 32.8024C50.4166 33.0473 50.4039 32.5666 51.0142 31.4343C51.6245 30.3019 53.0049 25.1741 53.8755 22.4651C54.8442 19.4962 55.6272 18.0979 56.8102 18.6245C57.9932 19.1511 59.326 22.003 57.6734 32.681C57.5965 33.1468 56.0516 45.9592 56.0516 45.9592C53.4696 65.8333 68.1698 83.923 87.6856 86.4458" vector-effect="non-scaling-stroke" stroke="black" stroke-linecap="round" stroke-linejoin="round"/>
			<path d="M54.0256 42.5141L68.3661 41.8267" vector-effect="non-scaling-stroke" stroke="black" stroke-linecap="round" stroke-linejoin="round"/>
			<path d="M53.2558 45.7185L66.625 48.3492" vector-effect="non-scaling-stroke" stroke="black" stroke-linecap="round" stroke-linejoin="round"/>
			<path d="M25.607 41.8706C24.039 41.4461 9.89187 39.6256 9.89187 39.6256" vector-effect="non-scaling-stroke" stroke="black" stroke-linecap="round" stroke-linejoin="round"/>
			<path d="M25.1778 46.585L9.02901 47.7469" vector-effect="non-scaling-stroke" stroke="black" stroke-linecap="round" stroke-linejoin="round"/>
			<path d="M31.0677 39.7728C31.0677 39.7728 31.3354 43.0562 33.6939 43.1511C36.0525 43.2461 36.931 41.8267 37.2661 40.3545" vector-effect="non-scaling-stroke" stroke="black" stroke-linecap="round" stroke-linejoin="round"/>
			<path d="M41.8411 40.3C41.8411 40.3 42.1088 43.5835 44.4674 43.6784C46.8259 43.7734 47.7044 42.354 48.0395 40.8817" vector-effect="non-scaling-stroke" stroke="black" stroke-linecap="round" stroke-linejoin="round"/>
			<path d="M60.259 79.6895C60.259 79.6895 69.8301 89.6072 85.3716 93.572C85.3716 93.572 94.7996 95.7728 94.7775 98.9164C94.7592 102.594 92.7137 104.171 85.953 102.87C79.1922 101.57 64.8518 96.3496 56.3298 87.2125" vector-effect="non-scaling-stroke" stroke="black" stroke-linecap="round" stroke-linejoin="round"/>
		</symbol>

		<symbol id="profile-default" viewBox="0 0 80 80" fill="none">
			<path d="M46.4576 35.2731L34.503 33.1635C33.7935 33.0383 33.4452 32.2266 33.8433 31.6262L44.2157 15.9797C44.7381 15.1916 45.9613 15.5017 46.0452 16.4434L47.6275 34.1996C47.6859 34.8553 47.1059 35.3875 46.4576 35.2731Z" fill="#FFEC66" vector-effect="non-scaling-stroke" stroke="black"/>
			<path fill-rule="evenodd" clip-rule="evenodd" d="M46.3197 18.1258L46.6309 21.6182L40.8053 21.2863L43.0249 17.9381L46.3197 18.1258Z" fill="#C9D6AB"/>
			<path fill-rule="evenodd" clip-rule="evenodd" d="M47.3006 29.1472L36.0354 28.5054L38.255 25.1572L46.9894 25.6548L47.3006 29.1472Z" fill="#C9D6AB"/>
			<path d="M46.4576 35.2731L34.503 33.1635C33.7935 33.0383 33.4452 32.2266 33.8433 31.6262L44.2157 15.9797C44.7381 15.1916 45.9613 15.5017 46.0452 16.4434L47.6275 34.1996C47.6859 34.8553 47.1059 35.3875 46.4576 35.2731Z" vector-effect="non-scaling-stroke" stroke="black"/>
			<circle cx="45" cy="16.0001" r="3.5" fill="#FFEC66" vector-effect="non-scaling-stroke" stroke="black"/>
			<path d="M87.6648 86.4608C107.181 88.9836 124.653 74.8993 127.217 55.0222L130.027 33.658C130.027 33.658 130.599 27.182 134.633 27.8296C139.023 28.5544 138.965 33.8086 138.885 36.188C138.787 38.5645 136.607 63.6952 136.607 63.6952C136.607 63.6952 136.045 72.8968 143.378 73.8499C146.063 74.422 150.957 72.8742 152.516 67.4445C154.075 62.0149 157.651 36.0103 157.651 36.0103C157.651 36.0103 157.552 30.1413 162.165 30.7374C166.779 31.3334 166.93 36.7695 166.417 39.0958C165.904 41.4221 163.783 66.084 159.567 77.2406L160.167 75.3888C151.997 107.04 119.205 128.183 83.3445 123.551C44.7458 118.558 19.2801 86.4152 21.2928 49.3674L21.9813 42.7449C22.2088 31.3347 25.0692 21.8131 25.6389 19.4778C26.4755 16.0822 27.4131 14.1941 29.8499 14.7068C30.7577 14.8935 31.2954 25.0129 31.4042 27.81C31.5129 30.6071 33.2984 30.8283 33.2984 30.8283L48.4877 32.8024C50.4166 33.0473 50.4039 32.5666 51.0142 31.4343C51.6245 30.3019 53.0049 25.1741 53.8755 22.4651C54.8442 19.4962 55.6272 18.0979 56.8102 18.6245C57.9932 19.1511 59.326 22.003 57.6734 32.681C57.5965 33.1468 56.0516 45.9592 56.0516 45.9592C53.4696 65.8333 68.1698 83.923 87.6856 86.4458" fill="#C1A188"/>
			<path d="M87.6648 86.4608C107.181 88.9836 124.653 74.8993 127.217 55.0222L130.027 33.658C130.027 33.658 130.599 27.182 134.633 27.8296C139.023 28.5544 138.965 33.8086 138.885 36.188C138.787 38.5645 136.607 63.6952 136.607 63.6952C136.607 63.6952 136.045 72.8968 143.378 73.8499C146.063 74.422 150.957 72.8742 152.516 67.4445C154.075 62.0149 157.651 36.0103 157.651 36.0103C157.651 36.0103 157.552 30.1413 162.165 30.7374C166.779 31.3334 166.93 36.7695 166.417 39.0958C165.904 41.4221 163.783 66.084 159.567 77.2406L160.167 75.3888C151.997 107.04 119.205 128.183 83.3445 123.551C44.7458 118.558 19.2801 86.4152 21.2928 49.3674L21.9813 42.7449C22.2088 31.3347 25.0692 21.8131 25.6388 19.4778C26.4756 16.0822 27.4131 14.1941 29.8498 14.7068C30.7577 14.8935 31.2954 25.0129 31.4042 27.81C31.5129 30.6071 33.2984 30.8283 33.2984 30.8283L48.4877 32.8024C50.4166 33.0473 50.4039 32.5666 51.0142 31.4343C51.6245 30.3019 53.0049 25.1741 53.8755 22.4651C54.8442 19.4962 55.6272 18.0979 56.8102 18.6245C57.9932 19.1511 59.326 22.003 57.6734 32.681C57.5965 33.1468 56.0516 45.9592 56.0516 45.9592C53.4696 65.8333 68.1698 83.923 87.6856 86.4458" vector-effect="non-scaling-stroke" stroke="black" stroke-linecap="round" stroke-linejoin="round"/>
			<path d="M54.0256 42.5141L68.3661 41.8267" vector-effect="non-scaling-stroke" stroke="black" stroke-linecap="round" stroke-linejoin="round"/>
			<path d="M53.2558 45.7185L66.625 48.3492" vector-effect="non-scaling-stroke" stroke="black" stroke-linecap="round" stroke-linejoin="round"/>
			<path d="M25.607 41.8706C24.039 41.4461 9.89187 39.6256 9.89187 39.6256" vector-effect="non-scaling-stroke" stroke="black" stroke-linecap="round" stroke-linejoin="round"/>
			<path d="M25.1778 46.585L9.02901 47.7469" vector-effect="non-scaling-stroke" stroke="black" stroke-linecap="round" stroke-linejoin="round"/>
			<path d="M31.0677 39.7728C31.0677 39.7728 31.3354 43.0562 33.6939 43.1511C36.0525 43.2461 36.931 41.8267 37.2661 40.3545" vector-effect="non-scaling-stroke" stroke="black" stroke-linecap="round" stroke-linejoin="round"/>
			<path d="M41.8411 40.3C41.8411 40.3 42.1088 43.5835 44.4674 43.6784C46.8259 43.7734 47.7044 42.354 48.0395 40.8817" vector-effect="non-scaling-stroke" stroke="black" stroke-linecap="round" stroke-linejoin="round"/>
			<path d="M60.259 79.6895C60.259 79.6895 69.8301 89.6072 85.3716 93.572C85.3716 93.572 94.7996 95.7728 94.7775 98.9164C94.7592 102.594 92.7137 104.171 85.953 102.87C79.1922 101.57 64.8518 96.3496 56.3298 87.2125" vector-effect="non-scaling-stroke" stroke="black" stroke-linecap="round" stroke-linejoin="round"/>
		</symbol>

		<symbol id="weight-average" viewBox="0 0 88 88" fill="none">
			<path d="M2.44444 17.1111C2.44444 17.1111 4.98667 13.7867 8.21333 11.7333V6.45332C8.21333 6.45332 15.3511 8.01776 17.6978 11.1467C17.6978 11.1467 20.0444 11.2444 21.12 10.7555C22.1956 10.2667 27.7689 9.1911 34.5156 9.09332C39.6 8.99554 48.7911 9.87554 48.7911 9.87554C48.7911 9.87554 58.8622 5.86665 68.7378 14.96C68.7378 14.96 75.5822 10.9511 69.6178 6.25776C64.3378 2.05332 56.9067 5.08443 53.8756 5.96443C53.8756 5.96443 56.0267 1.2711 65.6089 1.56443C74.8 1.56443 79.6889 13.2 69.1289 18.2844C66.2933 21.8044 63.2622 24.3467 61.7956 24.8355C58.96 25.9111 53.3867 26.6933 48.4978 24.7378C48.4978 24.7378 37.84 26.1067 34.5156 26.1067C32.2667 26.0089 24.0533 25.1289 21.2178 24.3467L17.9911 23.8578L15.3511 25.3244C15.3511 25.3244 12.9067 26.8889 8.40889 27.0844L8.50666 22.88C8.31111 22.7822 3.81333 20.3378 2.44444 17.1111Z" fill="currentColor" vector-effect="non-scaling-stroke" stroke="black" stroke-miterlimit="10" stroke-linecap="round" stroke-linejoin="round"/>
			<path d="M67.1733 79.2C68.3467 77.6355 69.9111 74.3111 69.9111 74.3111L62.3822 65.3155L59.7422 62.1866L56.2222 67.6622L59.7422 74.8L67.1733 79.2Z" fill="currentColor" vector-effect="non-scaling-stroke" stroke="black" stroke-miterlimit="10" stroke-linecap="round" stroke-linejoin="round"/>
			<path d="M52.017 58.7644C46.0526 68.5422 37.1548 70.0089 37.1548 70.0089H28.6481L26.0081 67.8578L24.6392 61.5022L32.8526 61.4044L39.5015 61.6978L52.017 58.7644Z" fill="currentColor"/>
			<path d="M48.7911 63.2623C48.7911 63.2623 48.4 67.76 48.4 70.0089C48.4 70.0089 47.9111 72.6489 60.9156 79.2978C60.9156 79.2978 62.7733 82.1334 60.5244 84.3823C60.5244 84.3823 56.5156 85.2623 56.0267 87.4134H61.4044C61.4044 87.4134 67.0756 84.2845 67.3689 77.9289L59.1556 67.8578C59.1556 67.8578 64.9244 64.8267 66.0978 58.7645C66.0978 58.7645 67.1733 54.0711 66.1956 49.28C66.1956 49.28 70.9867 36.4711 86.24 32.3645C86.24 32.3645 71.9644 30.0178 62.7733 47.6178C62.7733 47.6178 41.4578 46.64 28.3556 51.3334C28.3556 51.3334 24.4444 52.1156 20.4356 49.4756C16.4267 46.8356 16.1333 44 10.56 43.9023C10.56 43.9023 7.92 41.2623 2.44444 41.6534L5.57333 45.6623C5.57333 45.6623 4.10667 47.8134 4.10667 48.8889C4.10667 49.9645 4.20444 52.7023 3.42222 55.1467C3.42222 55.1467 3.61778 61.9911 10.4622 57.1023L15.1556 58.8623C15.1556 58.8623 12.6133 66.1956 20.1422 72.0623C20.1422 72.0623 20.7289 73.92 19.6533 74.9956L12.2222 84.6756C8.8 84.7734 7.72444 87.5111 7.72444 87.5111H14.2756L28.3556 72.5511C28.3556 72.5511 29.92 70.3023 27.0844 66.4889" fill="currentColor"/>
			<path d="M48.7911 63.2623C48.7911 63.2623 48.4 67.76 48.4 70.0089C48.4 70.0089 47.9111 72.6489 60.9156 79.2978C60.9156 79.2978 62.7733 82.1334 60.5244 84.3823C60.5244 84.3823 56.5156 85.2623 56.0267 87.4134H61.4044C61.4044 87.4134 67.0756 84.2845 67.3689 77.9289L59.1556 67.8578C59.1556 67.8578 64.9244 64.8267 66.0978 58.7645C66.0978 58.7645 67.1733 54.0711 66.1956 49.28C66.1956 49.28 70.9867 36.4711 86.24 32.3645C86.24 32.3645 71.9644 30.0178 62.7733 47.6178C62.7733 47.6178 41.4578 46.64 28.3556 51.3334C28.3556 51.3334 24.4444 52.1156 20.4356 49.4756C16.4267 46.8356 16.1333 44 10.56 43.9023C10.56 43.9023 7.92 41.2623 2.44444 41.6534L5.57333 45.6623C5.57333 45.6623 4.10667 47.8134 4.10667 48.8889C4.10667 49.9645 4.20444 52.7023 3.42222 55.1467C3.42222 55.1467 3.61778 61.9911 10.4622 57.1023L15.1556 58.8623C15.1556 58.8623 12.6133 66.1956 20.1422 72.0623C20.1422 72.0623 20.7289 73.92 19.6533 74.9956L12.2222 84.6756C8.8 84.7734 7.72444 87.5111 7.72444 87.5111H14.2756L28.3556 72.5511C28.3556 72.5511 29.92 70.3023 27.0844 66.4889" vector-effect="non-scaling-stroke" stroke="black" stroke-miterlimit="10" stroke-linecap="round" stroke-linejoin="round"/>
			<path d="M30.9956 70.0089C30.9956 70.0089 35.1022 77.8311 34.6133 81.7422C34.6133 81.7422 34.6133 83.3067 33.3422 83.5022C32.1689 83.6978 30.5067 84.5778 30.3111 85.9467H35.5911C35.5911 85.9467 36.5689 85.4578 36.96 84.7733C37.3511 84.0889 37.6444 82.6222 37.6444 81.84V69.9111" fill="currentColor"/>
			<path d="M30.9956 70.0089C30.9956 70.0089 35.1022 77.8311 34.6133 81.7422C34.6133 81.7422 34.6133 83.3067 33.3422 83.5022C32.1689 83.6978 30.5067 84.5778 30.3111 85.9467H35.5911C35.5911 85.9467 36.5689 85.4578 36.96 84.7733C37.3511 84.0889 37.6444 82.6222 37.6444 81.84V69.9111" vector-effect="non-scaling-stroke" stroke="black" stroke-miterlimit="10" stroke-linecap="round" stroke-linejoin="round"/>
			<path d="M28.747 70.0089H37.1559C37.1559 70.0089 46.0537 68.5422 51.9204 58.7644" fill="currentColor"/>
			<path d="M28.747 70.0089H37.1559C37.1559 70.0089 46.0537 68.5422 51.9204 58.7644" vector-effect="non-scaling-stroke" stroke="black" stroke-miterlimit="10" stroke-linecap="round" stroke-linejoin="round"/>
		</symbol>

		<symbol id="weight-cuddly" viewBox="0 0 88 88" fill="none">
			<path d="M33.44 73.6267C34.6133 76.2667 36.2756 80.5689 35.9822 83.1111C35.9822 83.1111 35.9822 84.6756 34.7111 84.8711C33.5378 85.0667 31.8756 85.9467 31.68 87.3156H36.96C36.96 87.3156 37.9378 86.8267 38.3289 86.1422C38.72 85.4578 39.0133 83.9911 39.0133 83.2089V73.92" fill="currentColor"/>
			<path d="M33.44 73.6267C34.6133 76.2667 36.2756 80.5689 35.9822 83.1111C35.9822 83.1111 35.9822 84.6756 34.7111 84.8711C33.5378 85.0667 31.8756 85.9467 31.68 87.3156H36.96C36.96 87.3156 37.9378 86.8267 38.3289 86.1422C38.72 85.4578 39.0133 83.9911 39.0133 83.2089V73.92" vector-effect="non-scaling-stroke" stroke="black" stroke-miterlimit="10" stroke-linecap="round" stroke-linejoin="round"/>
			<path d="M68.0533 82.3289C69.2267 80.7644 71.9644 76.4622 71.9644 76.4622L65.7067 68.9333C65.7067 68.9333 62.0889 64.6311 61.8933 65.2178C61.7955 65.8044 61.8933 71.9644 61.8933 71.9644L64.7289 78.9067L68.0533 82.3289Z" fill="currentColor" vector-effect="non-scaling-stroke" stroke="black" stroke-miterlimit="10" stroke-linecap="round" stroke-linejoin="round"/>
			<path d="M2.44444 17.1111C2.44444 17.1111 4.98667 13.7867 8.21333 11.7333V6.45333C8.21333 6.45333 15.3511 8.01778 17.6978 11.1467C17.6978 11.1467 48.4978 0.195555 68.64 14.8622C68.64 14.8622 75.4844 10.8533 69.52 6.16C64.24 1.95556 56.8089 4.98667 53.7778 5.86667C53.7778 5.86667 55.9289 1.17333 65.5111 1.46667C74.7022 1.46667 79.5911 13.1022 69.0311 18.1867C66.1955 21.7067 63.1644 24.1511 61.6978 24.7378C38.1333 34.8089 17.8933 23.76 17.8933 23.76L15.2533 25.2267C15.2533 25.2267 12.8089 26.7911 8.31111 26.9867L8.40889 22.7822C8.31111 22.7822 3.81333 20.3378 2.44444 17.1111Z" fill="currentColor" vector-effect="non-scaling-stroke" stroke="black" stroke-miterlimit="10" stroke-linecap="round" stroke-linejoin="round"/>
			<path d="M27.9644 72.9422C27.9644 72.9422 45.4667 75.68 52.0178 72.3556L55.44 65.2178L53.3867 58.2756H44.1956L34.1244 60.72L27.9644 61.6L24.2489 65.0222L27.9644 72.9422Z" fill="currentColor" vector-effect="non-scaling-stroke" stroke="black" stroke-miterlimit="10" stroke-linecap="round" stroke-linejoin="round"/>
			<path d="M48.6933 61.8933C48.4 63.36 48.2044 64.8267 48.4978 66.2933C49.9644 73.04 57.2 76.3644 62.7733 79.2C62.7733 79.2 64.6311 82.0356 62.3822 84.2844C62.3822 84.2844 58.3733 85.1645 57.8844 87.3156H63.2622C63.2622 87.3156 68.9333 84.1867 69.2267 77.8311L63.7511 70.4C63.7511 70.4 68.1511 68.1511 69.1289 61.5022C69.1289 61.5022 68.9333 54.0711 67.9556 49.28C67.9556 49.28 73.3333 33.8311 86.9244 35.0044C86.9244 35.0044 71.5733 29.8222 62.48 47.4222C62.48 47.4222 44.7822 45.4667 31.68 50.16C31.68 50.16 25.3244 51.3333 21.3156 48.6933C17.3067 45.9556 16.1333 44 10.56 43.8044C10.56 43.8044 7.92 41.1644 2.44444 41.5556L5.57333 45.5644C5.57333 45.5644 4.10667 47.7156 4.10667 48.7911C4.10667 49.8667 3.91111 52.5067 3.42222 55.0489C2.93333 57.5911 5.47555 61.1111 7.92 59.84C12.5156 57.3956 14.96 56.8089 14.96 56.8089C14.96 56.8089 9.38667 66.9778 20.0444 71.9644C20.0444 71.9644 20.6311 73.8222 19.5556 74.8978L12.1244 84.5778C8.70222 84.6756 7.62667 87.4133 7.62667 87.4133H14.1778L28.3556 72.5511C28.3556 72.5511 29.92 70.3022 27.0844 66.4889" fill="currentColor"/>
			<path d="M48.6933 61.8933C48.4 63.36 48.2044 64.8267 48.4978 66.2933C49.9644 73.04 57.2 76.3644 62.7733 79.2C62.7733 79.2 64.6311 82.0356 62.3822 84.2844C62.3822 84.2844 58.3733 85.1645 57.8844 87.3156H63.2622C63.2622 87.3156 68.9333 84.1867 69.2267 77.8311L63.7511 70.4C63.7511 70.4 68.1511 68.1511 69.1289 61.5022C69.1289 61.5022 68.9333 54.0711 67.9556 49.28C67.9556 49.28 73.3333 33.8311 86.9244 35.0044C86.9244 35.0044 71.5733 29.8222 62.48 47.4222C62.48 47.4222 44.7822 45.4667 31.68 50.16C31.68 50.16 25.3244 51.3333 21.3156 48.6933C17.3067 45.9556 16.1333 44 10.56 43.8044C10.56 43.8044 7.92 41.1644 2.44444 41.5556L5.57333 45.5644C5.57333 45.5644 4.10667 47.7156 4.10667 48.7911C4.10667 49.8667 3.91111 52.5067 3.42222 55.0489C2.93333 57.5911 5.47555 61.1111 7.92 59.84C12.5156 57.3956 14.96 56.8089 14.96 56.8089C14.96 56.8089 9.38667 66.9778 20.0444 71.9644C20.0444 71.9644 20.6311 73.8222 19.5556 74.8978L12.1244 84.5778C8.70222 84.6756 7.62667 87.4133 7.62667 87.4133H14.1778L28.3556 72.5511C28.3556 72.5511 29.92 70.3022 27.0844 66.4889" vector-effect="non-scaling-stroke" stroke="black" stroke-miterlimit="10" stroke-linecap="round" stroke-linejoin="round"/>
		</symbol>

		<symbol id="weight-slender" viewBox="0 0 88 88" fill="none">
			<path d="M66.5236 79.0825C67.6834 77.5319 69.2297 74.237 69.2297 74.237L61.7878 65.3214L55.8922 65.806L59.3716 74.1401L66.5236 79.0825Z" fill="currentColor" vector-effect="non-scaling-stroke" stroke="black" stroke-miterlimit="10" stroke-linecap="round" stroke-linejoin="round"/>
			<path d="M30.0881 68.2287C30.0881 68.2287 34.7272 77.7257 34.3406 81.5052C34.3406 81.5052 34.3406 83.0557 33.0842 83.2495C31.9244 83.4434 30.2814 84.3155 30.0881 85.6723H35.3071C35.3071 85.6723 36.2736 85.1877 36.6602 84.5093C37.0468 83.831 37.3367 82.3773 37.3367 81.6021V68.2287" fill="currentColor"/>
			<path d="M30.0881 68.2287C30.0881 68.2287 34.7272 77.7257 34.3406 81.5052C34.3406 81.5052 34.3406 83.0557 33.0842 83.2495C31.9244 83.4434 30.2814 84.3155 30.0881 85.6723H35.3071C35.3071 85.6723 36.2736 85.1877 36.6602 84.5093C37.0468 83.831 37.3367 82.3773 37.3367 81.6021V68.2287" vector-effect="non-scaling-stroke" stroke="black" stroke-miterlimit="10" stroke-linecap="round" stroke-linejoin="round"/>
			<path d="M28.0582 68.2287C27.285 68.2287 24.8688 66.5812 24.8688 66.5812L25.9319 58.4409L33.2772 57.0841H41.9756L53.2835 57.7625L49.7075 61.5419L48.1611 63.2863" fill="currentColor"/>
			<path d="M51.6398 61.6388C50.5766 63.4801 49.6101 65.5152 49.6101 66.5812C49.6101 66.5812 50.7699 72.0081 62.0778 79.1793C62.0778 79.1793 62.1745 82.0866 59.8549 84.2186C59.8549 84.2186 55.8923 85.0908 55.4091 87.2228H60.7247C60.7247 87.2228 66.3304 84.1217 66.6203 77.8226L58.5018 67.841C58.5018 67.841 64.2041 64.8368 65.3639 58.8285C65.3639 58.8285 66.427 54.1769 65.4605 49.4283C65.4605 49.4283 70.1963 36.7333 85.2735 32.6631C85.2735 32.6631 71.1628 30.3373 62.0778 47.7809C62.0778 47.7809 41.0084 46.8118 28.0575 51.4634C28.0575 51.4634 24.1915 52.2387 20.2289 49.6221C16.2663 47.0056 16.073 44.0983 10.5641 44.0014C10.5641 44.0014 7.95455 41.3849 2.54222 41.7725L5.63498 45.7458C5.63498 45.7458 4.18525 47.8778 4.18525 48.9438C4.18525 50.0098 4.2819 52.7232 3.50871 55.1459C3.50871 55.1459 3.70201 61.9296 10.4674 57.0841L15.1066 58.8285C15.1066 58.8285 12.5937 66.0966 20.0356 71.9112C20.0356 71.9112 20.6155 73.7524 19.5524 74.8184L12.2071 84.4124C8.82439 84.5093 7.76125 87.2228 7.76125 87.2228H14.2367L28.1541 72.4926C28.1541 72.4926 29.7005 70.2637 26.8977 66.4843C26.8977 66.4843 26.2212 63.3832 27.1876 61.8327" fill="currentColor"/>
			<path d="M51.6398 61.6388C50.5766 63.4801 49.6101 65.5152 49.6101 66.5812C49.6101 66.5812 50.7699 72.0081 62.0778 79.1793C62.0778 79.1793 62.1745 82.0866 59.8549 84.2186C59.8549 84.2186 55.8923 85.0908 55.4091 87.2228H60.7247C60.7247 87.2228 66.3304 84.1217 66.6203 77.8226L58.5018 67.841C58.5018 67.841 64.2041 64.8368 65.3639 58.8285C65.3639 58.8285 66.427 54.1769 65.4605 49.4283C65.4605 49.4283 70.1963 36.7333 85.2735 32.6631C85.2735 32.6631 71.1628 30.3373 62.0778 47.7809C62.0778 47.7809 41.0084 46.8118 28.0575 51.4634C28.0575 51.4634 24.1915 52.2387 20.2289 49.6221C16.2663 47.0056 16.073 44.0983 10.5641 44.0014C10.5641 44.0014 7.95455 41.3849 2.54222 41.7725L5.63498 45.7458C5.63498 45.7458 4.18525 47.8778 4.18525 48.9438C4.18525 50.0098 4.2819 52.7232 3.50871 55.1459C3.50871 55.1459 3.70201 61.9296 10.4674 57.0841L15.1066 58.8285C15.1066 58.8285 12.5937 66.0966 20.0356 71.9112C20.0356 71.9112 20.6155 73.7524 19.5524 74.8184L12.2071 84.4124C8.82439 84.5093 7.76125 87.2228 7.76125 87.2228H14.2367L28.1541 72.4926C28.1541 72.4926 29.7005 70.2637 26.8977 66.4843C26.8977 66.4843 26.2212 63.3832 27.1876 61.8327" vector-effect="non-scaling-stroke" stroke="black" stroke-miterlimit="10" stroke-linecap="round" stroke-linejoin="round"/>
			<path d="M28.058 68.2287C28.058 68.2287 34.2435 68.2287 39.076 68.2287C43.9084 68.2287 50.5772 62.8018 55.023 58.4409" fill="currentColor"/>
			<path d="M28.058 68.2287C28.058 68.2287 34.2435 68.2287 39.076 68.2287C43.9084 68.2287 50.5772 62.8018 55.023 58.4409" vector-effect="non-scaling-stroke" stroke="black" stroke-miterlimit="10" stroke-linecap="round" stroke-linejoin="round"/>
			<path d="M36.2722 61.9296C36.2722 62.8987 36.4654 63.9647 36.4654 64.9338C36.4654 65.9998 36.0789 67.1627 36.0789 68.2287" fill="currentColor"/>
			<path d="M36.2722 61.9296C36.2722 62.8987 36.4654 63.9647 36.4654 64.9338C36.4654 65.9998 36.0789 67.1627 36.0789 68.2287" vector-effect="non-scaling-stroke" stroke="black" stroke-miterlimit="10" stroke-linecap="round" stroke-linejoin="round"/>
			<path d="M33.4706 63.2863C33.6639 65.0307 32.9873 66.5812 33.1806 68.2287L33.4706 63.2863Z" fill="currentColor"/>
			<path d="M33.4706 63.2863C33.6639 65.0307 32.9873 66.5812 33.1806 68.2287" vector-effect="non-scaling-stroke" stroke="black" stroke-miterlimit="10" stroke-linecap="round" stroke-linejoin="round"/>
			<path d="M30.6675 65.0306C30.9575 66.1935 30.3776 67.1626 30.2809 68.2286L30.6675 65.0306Z" fill="currentColor"/>
			<path d="M30.6675 65.0306C30.9575 66.1935 30.3776 67.1626 30.2809 68.2286" vector-effect="non-scaling-stroke" stroke="black" stroke-miterlimit="10" stroke-linecap="round" stroke-linejoin="round"/>
			<path d="M2.64008 16.9677C2.64008 16.9677 5.15294 13.6728 8.34235 11.6378V6.40468H8.439C10.9519 7.27686 13.4647 8.34285 15.591 9.69958C16.2675 10.1841 16.8474 10.6687 17.4273 11.1532C19.6502 12.8976 22.9363 9.60267 25.0626 9.02122C26.1257 8.73049 27.2855 9.21503 28.3486 9.60267C31.6347 10.8625 35.3073 9.31194 38.5934 9.11812C43.3292 8.92431 47.6784 10.281 52.3175 10.4748C55.4103 10.5718 58.4064 9.8934 61.4991 10.6687C62.7556 10.9594 63.9154 11.5408 64.9785 12.3161C65.2684 12.5099 67.9746 14.7388 68.0713 14.6419C68.0713 14.6419 74.8367 10.6687 68.9411 6.01704C63.7221 1.84996 56.3768 4.85413 53.3806 5.72631C53.3806 5.72631 55.5069 1.07469 64.9785 1.36541C74.0635 1.36541 78.8959 12.8976 68.4578 17.9368C67.2981 19.3905 65.945 21.0379 64.4953 22.2977C63.1422 23.4606 60.8226 23.5575 59.0829 23.7514C56.5701 23.9452 54.0572 23.8483 51.5443 23.8483C45.2622 23.9452 38.0135 26.1741 31.9246 24.6235C30.5716 24.3328 29.2185 24.139 27.8654 24.2359C26.7056 24.3328 25.5458 24.5266 24.386 24.3328C22.8397 24.0421 21.4866 22.8792 19.9402 22.5885C17.524 22.2008 17.0407 23.7514 15.2044 24.9143C15.2044 24.9143 12.7882 26.4648 8.34235 26.6586L8.439 22.5885C8.439 22.5885 3.99316 20.1657 2.64008 16.9677Z" fill="currentColor" vector-effect="non-scaling-stroke" stroke="black" stroke-miterlimit="10" stroke-linecap="round" stroke-linejoin="round"/>
			<path d="M31.6344 19.2936C31.5378 19.6812 31.2478 19.9719 31.0545 20.1658C30.8612 20.3596 30.5713 20.6503 30.378 20.8441C30.088 21.1348 29.7981 21.4256 29.5081 21.8132C29.1215 22.4916 28.9282 23.3638 28.5416 24.139" fill="currentColor"/>
			<path d="M31.6344 19.2936C31.5378 19.6812 31.2478 19.9719 31.0545 20.1658C30.8612 20.3596 30.5713 20.6503 30.378 20.8441C30.088 21.1348 29.7981 21.4256 29.5081 21.8132C29.1215 22.4916 28.9282 23.3638 28.5416 24.139" vector-effect="non-scaling-stroke" stroke="black" stroke-miterlimit="10" stroke-linecap="round" stroke-linejoin="round"/>
			<path d="M36.3715 23.073C36.3715 23.6544 36.7581 23.8482 37.1447 24.2359C37.4346 24.5266 37.5313 24.8173 37.7246 25.205" fill="currentColor"/>
			<path d="M36.3715 23.073C36.3715 23.6544 36.7581 23.8482 37.1447 24.2359C37.4346 24.5266 37.5313 24.8173 37.7246 25.205" vector-effect="non-scaling-stroke" stroke="black" stroke-miterlimit="10" stroke-linecap="round" stroke-linejoin="round"/>
			<path d="M39.6562 22.9761C39.6562 23.6545 40.3328 24.3328 40.5261 25.0112L39.6562 22.9761Z" fill="currentColor"/>
			<path d="M39.6562 22.9761C39.6562 23.6545 40.3328 24.3328 40.5261 25.0112" vector-effect="non-scaling-stroke" stroke="black" stroke-miterlimit="10" stroke-linecap="round" stroke-linejoin="round"/>
			<path d="M42.4597 21.9101C42.4597 22.9761 43.3295 23.6544 43.6195 24.6235L42.4597 21.9101Z" fill="currentColor"/>
			<path d="M42.4597 21.9101C42.4597 22.9761 43.3295 23.6544 43.6195 24.6235" vector-effect="non-scaling-stroke" stroke="black" stroke-miterlimit="10" stroke-linecap="round" stroke-linejoin="round"/>
		</symbol>

		<symbol id="cat-head" viewBox="0 0 32 32" fill="none" >
			<path d="M23.375 15.9843L30.0907 13.4436" stroke="black" stroke-miterlimit="10" stroke-linecap="round" vector-effect="non-scaling-stroke"/>
			<path d="M23.7021 17.2131L30.6663 15.9841" stroke="black" stroke-miterlimit="10" stroke-linecap="round" vector-effect="non-scaling-stroke"/>
			<path d="M8.21435 17.1302C7.52142 17.0518 1.33301 17.0518 1.33301 17.0518L8.21435 17.1302Z" fill="currentColor" />
			<path d="M8.21435 17.1302C7.52142 17.0518 1.33301 17.0518 1.33301 17.0518" vector-effect="non-scaling-stroke" stroke="black" stroke-miterlimit="10" stroke-linecap="round"/>
			<path d="M8.29834 18.9347L1.41699 20.1636" vector-effect="non-scaling-stroke" stroke="black" stroke-miterlimit="10" stroke-linecap="round"/>
			<path d="M20.5858 13.5761H11.4121C11.4121 13.5761 10.4708 13.5761 10.2224 12.6676C9.97397 11.7591 9.48587 8.90873 9.48587 8.90873C9.48587 8.90873 9.28105 7.98301 8.78859 8.00024C8.0085 8.02177 7.59884 8.55567 7.39401 9.70098C7.18919 10.8506 5.79461 18.2133 9.11544 22.8031C9.11544 22.8031 10.4272 25.4167 16.2452 25.4167C26.2425 25.4167 25.3796 16.7063 25.1356 13.1455C24.8915 9.58472 24.3163 8.1983 23.6626 8.07774C23.0089 7.95718 22.5164 8.43511 22.3944 9.46416C22.2724 10.4932 22.0675 12.6331 21.8191 13.025C21.5707 13.4211 21.6099 13.5761 20.5858 13.5761Z" fill="currentColor" vector-effect="non-scaling-stroke" stroke="black" stroke-miterlimit="10"/>
			<path d="M11.4141 17.5398C11.4141 17.5398 11.7801 18.7688 13.0178 18.686C14.2555 18.6032 14.6216 18.0323 14.6913 17.457" fill="currentColor"/>
			<path d="M11.4141 17.5398C11.4141 17.5398 11.7801 18.7688 13.0178 18.686C14.2555 18.6032 14.6216 18.0323 14.6913 17.457" vector-effect="non-scaling-stroke" stroke="black" stroke-miterlimit="10" stroke-linecap="round" stroke-linejoin="round"/>
			<path d="M17.0654 17.2131C17.0654 17.2131 17.4315 18.442 18.6692 18.3592C19.9069 18.2764 20.2729 17.7055 20.3427 17.1302" fill="currentColor"/>
			<path d="M17.0654 17.2131C17.0654 17.2131 17.4315 18.442 18.6692 18.3592C19.9069 18.2764 20.2729 17.7055 20.3427 17.1302" vector-effect="non-scaling-stroke" stroke="black" stroke-miterlimit="10" stroke-linecap="round" stroke-linejoin="round"/>
		</symbol>

		<symbol id="new-york" viewBox="0 0 216 40" fill="none" >
			<path d="M130.887 2.77463L130.745 3.27975C132.944 3.39329 133.567 4.34891 133.567 5.17981C133.567 5.66709 133.371 6.23156 132.978 6.86527C132.978 6.86527 122.154 23.819 121.306 25.1466C121.257 24.9369 116.814 6.04146 116.814 6.04146C116.734 5.69353 116.695 5.38818 116.695 5.12046C116.695 3.80982 117.702 3.35587 119.648 3.28341L119.792 2.77441H111.198L111.051 3.27953C112.888 3.35093 113.962 3.84336 114.539 6.1821C115.565 10.4011 119.536 27.1578 119.651 27.6479C115.495 33.7257 111.989 37.2463 106.386 37.2463C102.3 37.2463 99.2205 34.4228 99.2205 30.678C99.2205 26.9419 102.207 23.9015 105.877 23.9015C108.16 23.9015 109.392 25.0644 109.392 26.1605C109.392 26.7903 109.044 27.1058 108.784 27.2892C108.478 27.4836 108.195 27.7285 108.195 28.1943C108.195 28.6377 108.542 28.9594 109.019 28.9594C109.806 28.9594 110.231 28.0102 110.231 27.1176C110.231 24.8195 108.563 23.391 105.877 23.391C101.376 23.391 98.59 27.2363 98.59 30.7982C98.59 34.2624 101.506 37.8458 106.386 37.8458C113.512 37.8458 117.267 32.1981 121.243 26.2198C121.243 26.2198 132.68 8.4202 133.892 6.61647C135.296 4.52632 137.114 3.36469 139.127 3.28211L139.272 2.77441L130.887 2.77463ZM130.248 21.1026C130.248 25.1999 132.95 27.3425 135.62 27.3425C137.95 27.3425 140.357 26.1493 142.226 24.0662C144.142 21.9309 145.241 19.0952 145.241 16.286C145.241 12.7506 143.142 10.3757 140.019 10.3757C135.179 10.3755 130.248 15.7891 130.248 21.1026ZM132.105 21.7314C132.105 17.0834 135.972 10.8439 139.929 10.8439C142.735 10.8439 143.324 13.3529 143.324 15.4474C143.324 19.4309 140.667 26.874 135.589 26.874C133.408 26.874 132.105 24.9447 132.105 21.7314ZM155.728 10.6445C155.728 10.6445 152.843 10.6961 152.843 10.6961C151.427 10.7316 149.934 10.7669 148.838 10.734L148.724 11.1236C150.352 11.2266 150.963 11.6337 150.358 13.5787L147.096 24.3817C146.672 25.7425 145.753 26.4525 144.323 26.5357L144.172 26.9535H150.705L150.821 26.5357C149.599 26.4781 148.682 26.2846 148.682 25.2049C148.682 24.9586 148.732 24.6748 148.83 24.3484C148.83 24.3484 150.416 19.0587 150.436 18.9948C150.501 18.9948 153.341 18.9948 153.395 18.9948C153.405 19.0146 153.417 19.0357 153.417 19.0357C154.712 21.6282 156.323 24.8513 157.272 26.9271L157.284 26.9535H166.057L166.171 26.5331C164.96 26.5071 164.006 26.2478 164.006 25.1924C164.006 24.9498 164.055 24.6694 164.151 24.3482C164.151 24.3482 165.448 20.0244 165.493 19.8741C165.515 19.8563 167.657 18.188 167.741 18.1216C170.732 24.1583 175.732 34.1962 185.471 34.1962C188.266 34.1962 190.454 32.4535 190.454 30.2303C190.454 28.5283 189.182 27.6116 187.985 27.6116C186.803 27.6116 186.173 28.4194 186.173 29.0031C186.173 29.3525 186.46 29.5875 186.728 29.5875C187.045 29.5875 187.254 29.4557 187.426 29.145C187.6 28.831 187.961 28.5332 188.461 28.5332C189.4 28.5332 190.034 29.1721 190.034 30.2303C190.034 32.1353 188.041 33.685 185.591 33.685C179.422 33.685 174.087 28.2326 169.28 17.0182C169.337 16.9754 174.937 12.7016 174.937 12.7016C176.794 11.329 177.7 11.1826 178.439 11.1251L178.558 10.7342H173.079L172.964 11.1226C173.876 11.1748 174.416 11.5159 174.416 11.9818C174.416 12.344 174.105 12.7809 173.503 13.2577C173.503 13.2577 166.641 18.437 165.687 19.1572C165.766 18.8998 167.411 13.5166 167.411 13.5166C167.41 13.5187 167.447 13.4125 167.447 13.4125C167.933 12.0122 168.234 11.2258 170.247 11.1228L170.362 10.7344H164.162L164.04 11.1254C164.94 11.1651 165.487 11.352 165.717 11.6789C165.958 12.0218 165.938 12.5728 165.648 13.5804L162.417 24.3817C161.997 25.7289 161.141 26.5331 160.127 26.5331C159.202 26.5331 158.588 25.9725 157.864 24.4643C157.864 24.4643 155.337 19.3034 155.077 18.772C157.593 18.299 160.501 16.7529 160.501 13.9215C160.501 11.9373 159.121 10.6331 155.728 10.6445ZM155.22 11.0346C158.124 11.0346 158.734 12.4915 158.734 13.7127C158.734 15.9303 157.693 18.5736 152.736 18.5736C152.736 18.5736 150.671 18.5736 150.553 18.5736C150.589 18.4572 152.813 11.181 152.831 11.1223C153.2 11.0909 154.295 11.0346 155.22 11.0346Z" fill="black"/>
			<path d="M63.1559 22.9055C60.5544 18.3525 57.0923 11.1608 55.2533 2.77464H46.7106C44.5028 2.77464 40.799 3.24686 40.799 6.38446C40.799 7.61554 41.7774 8.94382 43.359 8.94382C44.7944 8.94382 45.5588 7.99616 45.5588 7.31256C45.5588 6.88593 45.3201 6.42789 44.7948 6.42789C44.2669 6.42789 44.031 6.87195 44.031 7.31256C44.031 7.84929 43.6684 8.22431 43.1489 8.22431C42.1017 8.22431 41.3695 7.44265 41.3695 6.32511C41.3695 4.31 43.1668 3.28836 46.7103 3.28836H50.3333C52.4553 3.28836 53.3913 4.34032 52.8593 6.46402C49.2291 19.2623 41.9653 32.9397 32.4668 32.9397C28.0964 32.9397 25.8099 30.3894 25.8099 27.8687C25.8099 26.0457 27.0502 24.6834 28.1583 24.6834C28.8924 24.6834 29.1627 25.1703 29.4233 25.6405C29.6678 26.0824 29.9209 26.5383 30.5516 26.5383C30.9948 26.5383 31.4658 26.2183 31.4658 25.6257C31.4658 24.6094 30.3142 23.8441 28.7866 23.8441C27.0304 23.8441 25.1504 25.4614 25.1504 27.869C25.1504 31.1726 28.2273 33.5704 32.467 33.5704C37.5504 33.5704 42.2963 29.9995 46.5738 22.9565C50.6601 16.2271 52.8911 8.62578 53.5352 6.22576C57.2574 19.5374 68.3731 37.8497 79.7154 37.8497C82.7552 37.8497 84.878 36.1571 84.878 33.7347C84.878 32.2323 83.9639 31.0601 82.7973 31.0601C82.0967 31.0601 81.6441 31.367 81.6441 31.8491C81.6441 32.271 82.0324 32.5243 82.4088 32.5243C82.601 32.5243 82.7509 32.4591 82.896 32.3963C83.0287 32.3383 83.1549 32.2837 83.3057 32.2837C83.9205 32.2837 84.3669 32.932 84.3669 33.8246C84.3669 35.8612 82.4485 37.3392 79.8051 37.3392C74.3679 37.3392 69.0402 32.8303 63.5169 23.5545C65.7806 16.2447 70.3306 4.00702 75.4063 4.00702C76.3331 4.00702 76.9098 4.23861 77.4186 4.44333C77.819 4.60374 78.197 4.75491 78.6688 4.75491C79.767 4.75491 80.0601 4.0683 80.0601 3.66167C80.0601 2.75765 79.1636 2.15039 77.8304 2.15039C70.4237 2.14975 65.9109 13.9638 63.1559 22.9055ZM102.212 10.734L102.094 11.1185C103.483 11.2157 103.898 11.9537 103.898 12.5631C103.898 12.8945 103.792 13.2721 103.582 13.6925L97.6727 25.0197L96.782 12.7467C96.6861 11.4746 97.3764 11.1368 98.7489 11.1249L98.8678 10.734H93.2363L93.1184 11.1185C94.5129 11.2346 94.9389 11.7214 94.9389 12.2883C94.9389 12.5592 94.8665 12.8317 94.6656 13.2435C94.6652 13.2435 88.9024 24.9662 88.9024 24.9662L88.0066 12.7743C87.936 11.3793 88.6356 11.1733 89.9245 11.1228L90.0408 10.7338H84.2895L84.1688 11.1228C85.7893 11.2174 86.2869 11.686 86.4018 13.177L87.5419 27.235H88.2412L95.1768 13.162L96.3094 27.235H96.9777L104.05 13.734C104.995 11.9487 106.049 11.2088 107.428 11.1224L107.544 10.734H102.212ZM82.8565 10.734H71.8713L71.7552 11.1198C72.6528 11.1836 73.2147 11.3686 73.4499 11.7064C73.6798 12.0371 73.6798 12.5414 73.4469 13.3409L70.0955 24.5019C69.7055 25.7616 68.7585 26.4538 67.3493 26.5418L67.2016 26.9548H81.2093L83.6379 22.1582L83.3502 22.035C81.3557 25.2072 78.4308 26.5332 73.311 26.5332C73.311 26.5332 71.335 26.5332 71.2189 26.5332C71.2535 26.4183 73.5654 18.7301 73.5849 18.6658C73.6507 18.6658 75.9144 18.6658 75.9144 18.6658C76.8539 18.6658 77.4801 18.8753 77.83 19.306C78.2315 19.8004 78.2826 20.6444 78.0149 21.9254L78.3723 21.9271L80.3111 15.4676L79.9474 15.465C79.2632 17.2567 77.8351 18.2743 75.9452 18.2743C75.9452 18.2743 73.8189 18.2743 73.7028 18.2743C73.7374 18.1594 75.8396 11.1884 75.8594 11.1247C75.925 11.1247 78.0399 11.1247 78.0399 11.1247C80.7925 11.1247 82.5133 12.3317 83.1257 14.6315L83.4173 14.5892L82.8971 10.7338H82.8565V10.734Z" fill="currentColor"/>
		</symbol>

		<symbol id="buzzfeed" viewBox="0 0 216 40" fill="none" >
			<g clip-path="url(#clip0_101_191)">
			<path d="M32 33.4963V7H43.8573C48.9106 7 51.5094 10.2199 51.5094 13.7455C51.5094 17.0373 49.434 19.3038 46.9253 19.8255C49.7949 20.2572 52.0328 23.0093 52.0328 26.3011C52.0328 30.3125 49.3979 33.4963 44.3084 33.4963H32ZM45.7342 14.7528C45.7342 13.1159 44.5431 11.9647 42.63 11.9647H37.6669V17.523H42.63C44.5431 17.523 45.7342 16.4617 45.7342 14.7528ZM46.2576 25.5097C46.2576 23.8368 45.0664 22.4877 42.8646 22.4877H37.6669V28.5316H42.8827C44.9762 28.5316 46.2576 27.4164 46.2576 25.5097Z" fill="currentColor"/>
			<path d="M53.5849 25.8154V14.3031H58.6743V25.6535C58.6743 27.938 60.064 29.5929 62.7711 29.5929C65.4422 29.5929 66.8499 27.938 66.8499 25.6535V14.3031H71.9212V25.7974C71.9212 30.6182 69.0156 34 62.7892 34C56.5628 34 53.5849 30.5822 53.5849 25.8154Z" fill="currentColor"/>
			<path d="M73.5997 33.4963V29.7188L82.2806 18.7102H73.5997V14.3031H89.1747V17.9187L80.3314 29.0892H89.3372V33.4963H73.5997Z" fill="currentColor"/>
			<path d="M90.9975 33.4963V29.7188L99.6784 18.7102H90.9975V14.3031H106.573V17.9187L97.7293 29.0892H106.735V33.4963H90.9975Z" fill="currentColor"/>
			<path d="M108.63 33.4963V7H127.075V11.9647H114.297V17.523H123.916V22.4877H114.297V33.4963H108.63Z" fill="currentColor"/>
			<path d="M125.342 23.8907C125.342 18.3325 129.493 13.8354 135.304 13.8354C141.08 13.8354 144.942 18.1346 144.942 24.3584V25.5456H130.63C130.991 27.8841 132.904 29.8448 136.171 29.8448C137.813 29.8448 140.033 29.1612 141.278 27.974L143.552 31.3198C141.639 33.0646 138.607 33.982 135.629 33.982C129.764 33.982 125.342 30.0426 125.342 23.8907ZM135.304 17.9727C132.164 17.9727 130.792 20.1492 130.594 22.056H140.087C139.925 20.2212 138.643 17.9727 135.304 17.9727Z" fill="currentColor"/>
			<path d="M146.313 23.8907C146.313 18.3325 150.464 13.8354 156.276 13.8354C162.051 13.8354 165.913 18.1346 165.913 24.3584V25.5456H151.601C151.962 27.8841 153.875 29.8448 157.142 29.8448C158.784 29.8448 161.004 29.1612 162.249 27.974L164.523 31.3198C162.61 33.0646 159.578 33.982 156.601 33.982C150.735 33.982 146.313 30.0426 146.313 23.8907ZM156.276 17.9727C153.135 17.9727 151.764 20.1492 151.565 22.056H161.058C160.896 20.2212 159.614 17.9727 156.276 17.9727Z" fill="currentColor"/>
			<path d="M167.772 33.5323V14.2672H175.532C181.614 14.2672 186 17.9007 186 23.8907C186 29.8628 181.632 33.5323 175.568 33.5323H167.772ZM181.073 23.8907C181.073 20.9047 179.268 18.4224 175.731 18.4224H172.591V29.3771H175.731C179.106 29.3771 181.073 26.7508 181.073 23.8907Z" fill="currentColor"/>
			</g>
			<defs>
			<clipPath id="clip0_101_191">
			<rect width="154" height="27" fill="white" transform="translate(32 7)"/>
			</clipPath>
			</defs>
		</symbol>

		<symbol id="business-insider" viewBox="0 0 216 40" fill="none" >
			<g clip-path="url(#clip0_101_176)">
			<path fill-rule="evenodd" clip-rule="evenodd" d="M53.9994 40H57.0002V24H53.9994V40ZM64.9994 39.76H67.6872V29.665L79.0003 40V24.24H76.3201V34.1625L64.9994 24V39.76ZM85.136 35.885C86.5988 37.0225 88.3547 37.68 90.2371 37.68C92.0707 37.68 93.3569 37.05 93.3569 35.6588C93.3569 34.4463 92.5366 33.9713 91.1 33.44L88.7743 32.6338C86.6301 31.8738 84.9995 30.7637 84.9995 28.2125C84.9995 25.4837 87.468 24 90.42 24C92.2285 24 93.8767 24.4537 95.1642 25.2575V27.9638C93.8253 26.9763 92.36 26.2963 90.4776 26.2963C88.8569 26.2963 87.6458 26.9 87.6458 28.1588C87.6458 29.2963 88.4061 29.7512 89.7449 30.2087L92.3362 31.1162C94.8473 31.9975 95.9995 33.3638 95.9995 35.6113C95.9995 38.4388 93.5072 40 90.2371 40C88.0879 40 86.2607 39.4 85.136 38.6425V35.885ZM103.001 40H106V24H103.001V40ZM120.072 37.5787C123.454 37.5787 125.261 35.4138 125.261 31.9963C125.261 28.5538 123.453 26.3963 120.072 26.3963H116.728V37.5787H120.072ZM113.998 24H120.173C124.926 24 127.999 27.125 127.999 31.9963C127.999 36.8713 124.926 40 120.173 40H113.998V24ZM143.001 24V26.3963H135.74V30.2463H142.252V32.615H135.739V37.5787H143.001V40H133V24H143.001ZM153.649 31.245H156.626C158.388 31.245 159.381 30.28 159.381 28.7963C159.381 27.3125 158.388 26.3462 156.626 26.3462H153.649V31.245ZM153.649 33.5075V40H151V24H156.676C159.912 24 162.006 25.6638 162.006 28.7963C162.006 31.475 160.844 33.0137 158.368 33.4087L164 40H160.987L155.534 33.5087H153.65L153.649 33.5075ZM52.9511 8.2375C54.1246 7.80875 55.0389 6.5225 55.0389 4.75375C55.0389 1.80625 52.9511 0.27875 49.6109 0.27875H44V16.7325H50.1319C53.4721 16.7325 55.5599 15.0975 55.5599 12.0162C55.5599 10.2737 54.464 8.74625 52.9511 8.2375ZM46.6351 7.1925V2.69125H49.5858C51.4394 2.69125 52.4301 3.36125 52.4301 4.915C52.4301 6.46875 51.4382 7.1925 49.5858 7.1925H46.6351ZM46.6351 9.4975H50.0793C51.9078 9.4975 52.8985 10.4075 52.8985 11.9088C52.8985 13.3825 51.9066 14.3212 50.0805 14.3212H46.6364V9.49625L46.6351 9.4975ZM67.8024 17C71.6386 17 74.2223 14.695 74.2223 10.1937V0.27875H71.5083V9.87125C71.5083 13.0337 70.2033 14.5088 67.8024 14.5088C65.4015 14.5088 64.0977 13.0337 64.0977 9.87125V0.27875H61.3837V10.1663C61.3837 14.695 63.9925 17 67.8024 17ZM80.6122 15.5525C81.7344 16.3575 83.5617 17 85.7008 17C88.9634 17 91.4419 15.3375 91.4419 12.3375C91.4419 9.9525 90.2947 8.505 87.7886 7.5675L85.2061 6.6025C83.8748 6.12125 83.1183 5.63875 83.1183 4.4325C83.1183 3.0925 84.3181 2.45 85.9363 2.45C87.8149 2.45 89.2765 3.1725 90.6078 4.21875V1.35C89.3291 0.49375 87.6847 0.01125 85.8837 0.01125C82.9355 0.01125 80.482 1.5925 80.482 4.48625C80.482 7.1925 82.1001 8.37125 84.2392 9.175L86.5625 10.0325C87.9978 10.595 88.8068 11.105 88.8068 12.3913C88.8068 13.865 87.5281 14.535 85.7008 14.535C83.8222 14.535 82.0738 13.8375 80.6122 12.6325V15.5525ZM101.139 0.27875H98.4267V16.7313H101.139V0.27875ZM108.882 16.7113H111.497V6.0075L122.503 16.9662V0.25375H119.896V10.775L108.882 0V16.7113ZM139.463 0.2825V2.74625H132.416V6.70625H138.735V9.1425H132.416V14.2463H139.463V16.7362H129.756V0.2825H139.463ZM145.781 15.5412C146.903 16.3462 148.729 16.9887 150.87 16.9887C154.131 16.9887 156.611 15.3275 156.611 12.3263C156.611 9.94125 155.462 8.495 152.957 7.55625L150.374 6.5925C149.042 6.11 148.286 5.6275 148.286 4.42125C148.286 3.08125 149.486 2.43875 151.104 2.43875C152.982 2.43875 154.444 3.1625 155.775 4.2075V1.34C154.497 0.4825 152.852 0 151.051 0C148.103 0 145.65 1.58125 145.65 4.475C145.65 7.18125 147.268 8.36 149.407 9.16375L151.73 10.0213C153.165 10.5838 153.974 11.0938 153.974 12.38C153.974 13.8538 152.697 14.5238 150.868 14.5238C148.99 14.5238 147.241 13.8275 145.781 12.6213V15.5412ZM162.17 15.5412C163.292 16.3462 165.12 16.9887 167.259 16.9887C170.521 16.9887 173 15.3275 173 12.3263C173 9.94125 171.852 8.495 169.347 7.55625L166.763 6.5925C165.433 6.11 164.675 5.6275 164.675 4.42125C164.675 3.08125 165.876 2.43875 167.493 2.43875C169.372 2.43875 170.835 3.1625 172.165 4.2075V1.34C170.887 0.4825 169.243 0 167.442 0C164.492 0 162.04 1.58125 162.04 4.475C162.04 7.18125 163.658 8.36 165.797 9.16375L168.121 10.0213C169.556 10.5838 170.365 11.0938 170.365 12.38C170.365 13.8538 169.086 14.5238 167.259 14.5238C165.38 14.5238 163.632 13.8275 162.17 12.6213V15.5412Z" fill="currentColor"/>
			</g>
			<defs>
			<clipPath id="clip0_101_176">
			<rect width="129" height="40" fill="none" transform="translate(44)"/>
			</clipPath>
			</defs>
		</symbol>

  </defs>
</svg>
